<?xml version="1.0" encoding="UTF-8"?>
<!-- Generator: visioncortex VTracer 0.6.5 -->
<svg version="1.1" xmlns="http://www.w3.org/2000/svg" width="1024" height="1024">
<path d="M0 0 C5.29 4.37 10.02 9.03 14.69 14.06 C15.04 14.44 15.04 14.44 16.81 16.33 C18.88 18.55 20.94 20.77 23 23 C23.28 23.3 23.28 23.3 24.68 24.81 C27.13 27.46 29.57 30.11 32.01 32.76 C35.32 36.35 38.66 39.93 42 43.5 C46.84 48.68 51.66 53.87 56.46 59.09 C60.29 63.24 64.14 67.37 68 71.5 C72.84 76.68 77.66 81.87 82.46 87.08 C86.31 91.26 90.18 95.41 94.06 99.56 C99.13 104.98 104.15 110.43 109.16 115.91 C112.99 120.09 116.87 124.22 120.74 128.36 C124.51 132.4 128.26 136.44 132 140.5 C136.31 145.18 140.65 149.85 145 154.5 C149.84 159.68 154.66 164.87 159.46 170.08 C163.31 174.26 167.18 178.41 171.06 182.56 C176.13 187.98 181.15 193.43 186.16 198.91 C189.99 203.09 193.87 207.22 197.74 211.36 C201.51 215.4 205.26 219.44 209 223.5 C213.31 228.18 217.65 232.85 222 237.5 C226.84 242.68 231.66 247.87 236.46 253.09 C240.29 257.24 244.14 261.37 248 265.5 C254.85 272.83 261.66 280.2 268.46 287.58 C274.88 294.55 281.32 301.49 287.79 308.41 C292.03 312.95 296.25 317.52 300.46 322.09 C304.29 326.24 308.14 330.37 312 334.5 C316.84 339.68 321.66 344.87 326.46 350.08 C330.31 354.26 334.18 358.41 338.06 362.56 C343.13 367.98 348.15 373.43 353.16 378.91 C356.99 383.09 360.87 387.22 364.74 391.36 C368.51 395.4 372.26 399.44 376 403.5 C380.9 408.82 385.83 414.1 390.76 419.39 C395.29 424.23 399.79 429.09 404.27 433.96 C406.15 436.01 408.04 438.04 410 440 C409.42 444.18 407.13 447.64 405.06 451.25 C404.89 451.56 404.89 451.56 404.03 453.1 C402.72 455.42 401.36 457.71 400 460 C399.84 460.28 399.84 460.28 399.03 461.68 C392.91 472.27 386.03 480.82 377.32 489.35 C376.07 490.59 374.83 491.83 373.59 493.07 C370.27 496.39 366.92 499.7 363.57 503 C360.05 506.48 356.55 509.98 353.04 513.48 C346.41 520.09 339.76 526.68 333.11 533.26 C323.35 542.93 313.62 552.62 303.88 562.3 C302.44 563.74 301 565.17 299.55 566.61 C298.85 567.31 298.14 568.01 297.42 568.73 C293.25 572.87 289.08 577.01 284.91 581.15 C282.31 583.72 279.72 586.3 277.12 588.87 C275.92 590.06 274.73 591.25 273.53 592.44 C263.33 602.52 263.33 602.52 259.57 606.93 C254.29 613.1 248.4 618.72 242.65 624.45 C241.3 625.8 239.95 627.14 238.6 628.49 C235.71 631.38 232.81 634.27 229.92 637.16 C225.33 641.73 220.75 646.3 216.17 650.88 C205.63 661.41 195.07 671.94 184.52 682.47 C174.85 692.13 165.17 701.79 155.5 711.45 C150.95 715.99 146.4 720.53 141.85 725.07 C139.01 727.9 136.18 730.73 133.35 733.56 C132.04 734.87 130.73 736.17 129.42 737.48 C123.69 743.19 118.01 748.86 112.75 755.02 C108.78 759.51 104.45 763.68 100.2 767.91 C99.12 768.99 98.05 770.06 96.97 771.14 C94.08 774.04 91.18 776.93 88.28 779.82 C85.24 782.85 82.21 785.89 79.17 788.92 C73.43 794.66 67.69 800.39 61.95 806.12 C55.41 812.65 48.87 819.19 42.33 825.72 C28.89 839.15 15.45 852.58 2 866 C-3.27 861.6 -8.18 856.96 -13.03 852.1 C-13.8 851.33 -14.57 850.57 -15.36 849.77 C-17.89 847.25 -20.41 844.72 -22.94 842.2 C-24.7 840.43 -26.47 838.66 -28.24 836.9 C-32.41 832.73 -36.57 828.56 -40.74 824.39 C-44.05 821.08 -47.36 817.76 -50.68 814.45 C-55.26 809.87 -59.85 805.29 -64.43 800.7 C-66.17 798.96 -67.92 797.22 -69.66 795.48 C-72.1 793.04 -74.54 790.6 -76.97 788.16 C-77.33 787.8 -77.33 787.8 -79.13 786.01 C-82.34 782.79 -85.44 779.53 -88.41 776.09 C-92.54 771.3 -97.01 766.87 -101.5 762.41 C-102.92 760.99 -104.34 759.57 -105.76 758.15 C-107.27 756.64 -108.79 755.13 -110.3 753.62 C-113.48 750.46 -116.65 747.3 -119.81 744.13 C-126.54 737.42 -133.27 730.71 -140 724 C-147.27 716.75 -154.54 709.51 -161.8 702.25 C-164.94 699.12 -168.09 695.98 -171.23 692.85 C-172.72 691.36 -174.21 689.88 -175.7 688.4 C-177.5 686.59 -179.31 684.8 -181.11 683 C-185.31 678.8 -189.32 674.53 -193.19 670.03 C-196.79 665.99 -200.66 662.22 -204.5 658.41 C-205.92 656.99 -207.34 655.57 -208.76 654.15 C-210.27 652.64 -211.79 651.13 -213.3 649.62 C-216.48 646.46 -219.65 643.3 -222.81 640.13 C-229.54 633.42 -236.27 626.71 -243 620 C-250.27 612.75 -257.54 605.51 -264.8 598.25 C-267.94 595.12 -271.09 591.98 -274.23 588.85 C-275.72 587.36 -277.21 585.88 -278.7 584.4 C-280.5 582.59 -282.31 580.8 -284.11 579 C-288.33 574.79 -292.36 570.5 -296.24 565.98 C-299.55 562.26 -303.12 558.79 -306.67 555.3 C-307.5 554.47 -308.34 553.64 -309.21 552.78 C-311.02 550.99 -312.83 549.2 -314.64 547.41 C-317.52 544.56 -320.4 541.7 -323.27 538.85 C-323.76 538.36 -324.25 537.88 -324.75 537.38 C-325.75 536.38 -326.75 535.39 -327.75 534.4 C-334.43 527.76 -341.11 521.13 -347.81 514.52 C-352.34 510.03 -356.87 505.54 -361.39 501.04 C-363.77 498.67 -366.15 496.31 -368.54 493.96 C-379.36 483.31 -389.12 472.66 -397.6 460.05 C-400.08 456.43 -402.7 452.91 -405.31 449.38 C-406.23 448.13 -407.14 446.89 -408.05 445.65 C-408.69 444.77 -409.34 443.9 -410 443 C-407.39 438.86 -404.73 435.53 -401.19 432.12 C-397.48 428.5 -394.01 424.8 -390.64 420.86 C-388.49 418.42 -386.17 416.16 -383.84 413.87 C-382.07 412.07 -380.41 410.21 -378.76 408.29 C-375.05 404.03 -371.2 399.91 -367.31 395.81 C-362.49 390.71 -357.69 385.6 -352.94 380.44 C-348.49 375.6 -344 370.79 -339.5 366 C-334.47 360.64 -329.46 355.27 -324.49 349.86 C-320.08 345.08 -315.65 340.33 -311.21 335.58 C-307.48 331.59 -303.76 327.58 -300.06 323.56 C-294.93 317.99 -289.75 312.46 -284.57 306.94 C-280.67 302.79 -276.79 298.63 -272.94 294.44 C-265.73 286.62 -258.47 278.85 -251.21 271.08 C-245.12 264.57 -239.04 258.06 -233 251.5 C-225.77 243.66 -218.49 235.87 -211.21 228.08 C-205.12 221.57 -199.04 215.06 -193 208.5 C-185.77 200.66 -178.49 192.87 -171.21 185.08 C-165.12 178.57 -159.04 172.06 -153 165.5 C-145.77 157.66 -138.49 149.87 -131.21 142.08 C-125.12 135.57 -119.04 129.06 -113 122.5 C-105.77 114.66 -98.49 106.87 -91.21 99.08 C-85.12 92.57 -79.04 86.06 -73 79.5 C-65.77 71.66 -58.49 63.87 -51.21 56.08 C-44.63 49.05 -38.07 42 -31.54 34.92 C-27.69 30.74 -23.82 26.59 -19.94 22.44 C-15.53 17.72 -11.13 13 -6.75 8.25 C-6.31 7.78 -6.31 7.78 -4.11 5.39 C-2 3 -2 3 0 0 Z " fill="#9884D1" transform="translate(512,105)"/>
<path d="M0 0 C5.29 4.37 10.02 9.03 14.69 14.06 C15.04 14.44 15.04 14.44 16.81 16.33 C18.88 18.55 20.94 20.77 23 23 C23.28 23.3 23.28 23.3 24.68 24.81 C27.13 27.46 29.57 30.11 32.01 32.76 C35.32 36.35 38.66 39.93 42 43.5 C46.84 48.68 51.66 53.87 56.46 59.09 C60.29 63.24 64.14 67.37 68 71.5 C72.84 76.68 77.66 81.87 82.46 87.08 C86.31 91.26 90.18 95.41 94.06 99.56 C99.13 104.98 104.15 110.43 109.16 115.91 C112.99 120.09 116.87 124.22 120.74 128.36 C124.51 132.4 128.26 136.44 132 140.5 C136.31 145.18 140.65 149.85 145 154.5 C149.84 159.68 154.66 164.87 159.46 170.08 C163.31 174.26 167.18 178.41 171.06 182.56 C176.13 187.98 181.15 193.43 186.16 198.91 C189.99 203.09 193.87 207.22 197.74 211.36 C201.51 215.4 205.26 219.44 209 223.5 C213.31 228.18 217.65 232.85 222 237.5 C226.84 242.68 231.66 247.87 236.46 253.09 C240.29 257.24 244.14 261.37 248 265.5 C254.85 272.83 261.66 280.2 268.46 287.58 C274.88 294.55 281.32 301.49 287.79 308.41 C292.03 312.95 296.25 317.52 300.46 322.09 C304.29 326.24 308.14 330.37 312 334.5 C316.84 339.68 321.66 344.87 326.46 350.08 C330.31 354.26 334.18 358.41 338.06 362.56 C343.13 367.98 348.15 373.43 353.16 378.91 C356.99 383.09 360.87 387.22 364.74 391.36 C368.51 395.4 372.26 399.44 376 403.5 C380.31 408.18 384.65 412.85 389 417.5 C390.75 419.38 392.5 421.25 394.26 423.13 C395.43 424.39 396.6 425.64 397.77 426.9 C399.45 428.7 401.13 430.51 402.81 432.31 C403.32 432.86 403.83 433.4 404.36 433.96 C407.89 437.77 407.89 437.77 409 440 C405.41 439.4 402.43 438.43 399.14 436.88 C398.2 436.45 397.27 436.01 396.3 435.56 C395.8 435.33 395.8 435.33 393.25 434.12 C391.06 433.11 388.86 432.09 386.67 431.07 C385.55 430.56 384.43 430.04 383.28 429.51 C378.4 427.26 373.48 425.09 368.56 422.94 C367.57 422.5 366.58 422.07 365.56 421.62 C363.34 420.65 361.13 419.68 358.91 418.71 C354.31 416.7 349.71 414.68 345.11 412.66 C327.09 404.74 309.06 396.82 291 389 C288.67 387.99 286.34 386.98 284.01 385.97 C278.93 383.77 273.86 381.57 268.78 379.37 C263.57 377.11 258.36 374.86 253.16 372.6 C251.22 371.76 249.28 370.92 247.35 370.08 C246.08 369.53 244.81 368.98 243.54 368.43 C237.33 365.73 231.13 363.05 224.91 360.39 C223.97 360 223.04 359.6 222.08 359.19 C220.41 358.48 218.75 357.77 217.08 357.07 C212.65 355.18 208.26 353.2 203.89 351.16 C199.06 348.91 194.19 346.79 189.27 344.75 C188.61 344.47 187.95 344.2 187.28 343.92 C184.59 342.81 181.9 341.7 179.21 340.6 C172.25 337.75 165.46 334.86 158.94 331.06 C156.52 329.74 153.98 328.89 151.39 327.98 C145.42 325.54 139.79 322.24 134.12 319.19 C132.7 318.42 131.27 317.66 129.84 316.89 C126.94 315.34 124.04 313.79 121.15 312.23 C117.39 310.21 113.62 308.2 109.86 306.19 C97.4 299.54 85.07 292.72 72.85 285.65 C70.2 284.12 67.56 282.6 64.91 281.08 C62.54 279.72 60.17 278.36 57.81 277 C56.11 276.02 54.4 275.05 52.7 274.07 C51.66 273.47 50.61 272.87 49.54 272.25 C48.56 271.69 47.58 271.13 46.57 270.55 C44.47 269.28 42.52 267.96 40.56 266.5 C38 265 38 265 35.61 264.96 C31.89 266.44 28.66 268.46 25.31 270.62 C24.6 271.08 23.88 271.54 23.14 272.01 C18.6 274.91 14.16 277.92 9.77 281.05 C6.14 283.6 2.45 286.05 -1.25 288.5 C-14.95 297.6 -28.56 306.83 -42 316.31 C-42.68 316.79 -43.36 317.27 -44.06 317.76 C-47.42 320.13 -50.73 322.54 -53.98 325.04 C-54.62 325.51 -55.26 325.99 -55.91 326.49 C-57.1 327.39 -58.28 328.3 -59.45 329.23 C-61.05 330.43 -61.05 330.43 -64 332 C-67.59 330.88 -70.86 329.11 -74.18 327.38 C-75.18 326.86 -76.18 326.35 -77.21 325.81 C-77.74 325.53 -77.74 325.53 -80.44 324.12 C-81.55 323.55 -82.66 322.97 -83.8 322.37 C-91.93 318.12 -100.01 313.76 -108.06 309.34 C-116.98 304.44 -125.98 299.71 -135 295 C-135.1 295.68 -135.2 296.35 -135.31 297.05 C-136.15 300.64 -137.56 303.86 -139.07 307.2 C-139.23 307.55 -139.23 307.55 -140.02 309.33 C-141.05 311.64 -142.09 313.94 -143.12 316.25 C-143.85 317.87 -144.58 319.49 -145.3 321.11 C-150.67 333.1 -156.09 345.05 -161.54 357 C-164.6 363.71 -167.65 370.42 -170.65 377.16 C-170.95 377.82 -171.24 378.48 -171.55 379.16 C-172.93 382.27 -174.32 385.38 -175.7 388.49 C-178.64 395.08 -181.7 401.58 -185 408 C-185.66 408 -186.32 408 -187 408 C-188.52 406.3 -188.52 406.3 -190.38 403.88 C-194.45 398.63 -198.74 393.62 -203.14 388.65 C-207 384.22 -207 384.22 -207 382 C-207.66 382 -208.32 382 -209 382 C-210.35 380.51 -211.63 378.96 -212.88 377.38 C-216.45 372.91 -220.08 368.52 -223.81 364.19 C-224.32 363.6 -224.82 363.02 -225.34 362.41 C-226.89 360.61 -228.45 358.8 -230 357 C-236.31 349.68 -242.58 342.33 -248.67 334.82 C-251.32 331.61 -254.03 328.46 -256.75 325.31 C-261.3 320.03 -265.77 314.7 -270.19 309.31 C-270.75 308.63 -271.32 307.95 -271.9 307.24 C-272.42 306.6 -272.94 305.96 -273.48 305.3 C-273.71 305.02 -273.71 305.02 -274.88 303.59 C-276 302 -276 302 -277 299 C-269.8 290.88 -262.37 282.97 -254.94 275.06 C-247.1 266.72 -239.29 258.33 -231.53 249.91 C-224.79 242.6 -218 235.35 -211.21 228.08 C-205.12 221.57 -199.04 215.06 -193 208.5 C-185.77 200.66 -178.49 192.87 -171.21 185.08 C-165.12 178.57 -159.04 172.06 -153 165.5 C-145.77 157.66 -138.49 149.87 -131.21 142.08 C-125.12 135.57 -119.04 129.06 -113 122.5 C-105.77 114.66 -98.49 106.87 -91.21 99.08 C-85.12 92.57 -79.04 86.06 -73 79.5 C-65.77 71.66 -58.49 63.87 -51.21 56.08 C-44.63 49.05 -38.07 42 -31.54 34.92 C-27.69 30.74 -23.82 26.59 -19.94 22.44 C-15.53 17.72 -11.13 13 -6.75 8.25 C-6.31 7.78 -6.31 7.78 -4.11 5.39 C-2 3 -2 3 0 0 Z " fill="#DFD6EE" transform="translate(512,105)"/>
<path d="M0 0 C4.17 1.34 8.18 2.86 12.21 4.58 C12.81 4.84 12.81 4.84 15.87 6.14 C16.51 6.41 17.15 6.68 17.81 6.96 C33.49 13.62 49.29 19.94 65.17 26.12 C68.58 27.45 71.99 28.78 75.4 30.12 C117.62 46.69 160.16 62.41 203 77.3 C205.05 78.02 207.09 78.73 209.14 79.45 C260.69 97.55 313.1 113.59 367 123 C367.68 123.12 368.36 123.24 369.06 123.36 C381.67 125.51 393.43 125.25 406.06 123.38 C406.67 123.29 406.67 123.29 409.75 122.83 C422.66 120.86 435.31 118.06 448 115 C449.41 114.66 450.81 114.33 452.22 114 C472.02 109.27 491.52 103.99 510.88 97.69 C513.17 96.94 515.47 96.2 517.77 95.46 C594.67 70.77 670 42.33 744.94 12.27 C746.09 11.8 747.24 11.34 748.42 10.87 C753.43 8.86 758.43 6.83 763.41 4.74 C764.21 4.41 765.01 4.08 765.83 3.73 C767.26 3.13 768.69 2.53 770.12 1.92 C772.94 0.73 774.91 0 778 0 C776.41 3.86 773.96 6.29 771.02 9.21 C770.51 9.72 770 10.24 769.47 10.76 C767.76 12.48 766.04 14.19 764.32 15.89 C763.09 17.12 761.86 18.35 760.63 19.58 C757.98 22.23 755.32 24.87 752.67 27.51 C748.46 31.69 744.27 35.88 740.07 40.07 C733.43 46.7 726.78 53.33 720.13 59.95 C708.24 71.8 696.36 83.65 684.48 95.51 C680.31 99.67 676.14 103.83 671.97 107.98 C669.36 110.57 666.76 113.17 664.16 115.76 C662.96 116.96 661.76 118.16 660.56 119.35 C650.34 129.51 650.34 129.51 646.56 133.94 C641.29 140.11 635.4 145.72 629.65 151.45 C628.3 152.8 626.95 154.14 625.6 155.49 C622.71 158.38 619.81 161.27 616.92 164.16 C612.33 168.73 607.75 173.3 603.17 177.88 C592.63 188.41 582.07 198.94 571.52 209.47 C561.85 219.13 552.17 228.79 542.5 238.45 C537.95 242.99 533.4 247.53 528.85 252.07 C526.01 254.9 523.18 257.73 520.35 260.56 C519.04 261.87 517.73 263.17 516.42 264.48 C510.69 270.19 505.01 275.86 499.75 282.02 C495.78 286.51 491.45 290.68 487.2 294.91 C486.12 295.99 485.05 297.06 483.97 298.14 C481.08 301.04 478.18 303.93 475.28 306.82 C472.24 309.85 469.21 312.89 466.17 315.92 C460.43 321.66 454.69 327.39 448.95 333.12 C442.41 339.65 435.87 346.19 429.33 352.72 C415.89 366.15 402.45 379.58 389 393 C383.73 388.6 378.82 383.96 373.97 379.1 C373.59 378.72 373.59 378.72 371.64 376.77 C369.11 374.25 366.59 371.72 364.06 369.2 C362.3 367.43 360.53 365.66 358.76 363.9 C354.59 359.73 350.43 355.56 346.26 351.39 C342.95 348.08 339.64 344.76 336.32 341.45 C331.74 336.87 327.15 332.29 322.57 327.7 C320.83 325.96 319.08 324.22 317.34 322.48 C314.9 320.04 312.46 317.6 310.03 315.16 C309.32 314.45 308.6 313.74 307.87 313.01 C304.66 309.79 301.56 306.53 298.59 303.09 C294.46 298.3 289.99 293.87 285.5 289.41 C284.08 287.99 282.66 286.57 281.24 285.15 C279.73 283.64 278.21 282.13 276.7 280.62 C273.52 277.46 270.35 274.3 267.19 271.13 C260.46 264.42 253.73 257.71 247 251 C239.73 243.75 232.46 236.51 225.2 229.25 C222.06 226.12 218.91 222.98 215.77 219.85 C214.28 218.36 212.79 216.88 211.3 215.4 C209.5 213.59 207.69 211.8 205.89 210 C201.69 205.8 197.68 201.53 193.81 197.03 C190.21 192.99 186.34 189.22 182.5 185.41 C181.08 183.99 179.66 182.57 178.24 181.15 C176.73 179.64 175.21 178.13 173.7 176.62 C170.52 173.46 167.35 170.3 164.19 167.13 C157.46 160.42 150.73 153.71 144 147 C136.73 139.75 129.46 132.51 122.2 125.25 C119.06 122.12 115.91 118.98 112.77 115.85 C111.28 114.36 109.79 112.88 108.3 111.4 C106.5 109.59 104.69 107.8 102.89 106 C98.68 101.79 94.65 97.51 90.77 92.99 C87.39 89.19 83.75 85.64 80.14 82.06 C79.29 81.21 78.43 80.35 77.54 79.47 C75.22 77.15 72.88 74.83 70.55 72.52 C68.11 70.08 65.66 67.65 63.22 65.21 C54.91 56.93 46.6 48.66 38.29 40.38 C33.68 35.8 29.08 31.22 24.48 26.63 C22.06 24.21 19.62 21.79 17.19 19.37 C14.48 16.68 11.78 13.99 9.08 11.29 C8.27 10.49 7.46 9.69 6.63 8.87 C5.9 8.14 5.17 7.4 4.41 6.65 C3.78 6.01 3.14 5.38 2.48 4.72 C1 3 1 3 0 0 Z " fill="#4F3BA4" transform="translate(125,578)"/>
<path d="M0 0 C0.66 0.66 1.32 1.32 2 2 C1.34 2 0.68 2 0 2 C0.01 2.6 0.01 3.2 0.02 3.81 C0.35 39.33 0.61 74.84 0.77 110.36 C0.78 114.63 0.8 118.89 0.82 123.16 C0.83 124.01 0.83 124.86 0.84 125.73 C0.9 139.48 1.02 153.22 1.16 166.97 C1.3 181.07 1.38 195.18 1.41 209.29 C1.43 217.99 1.5 226.69 1.62 235.4 C1.7 241.37 1.72 247.34 1.7 253.31 C1.69 256.75 1.71 260.19 1.79 263.64 C2.19 283.78 2.19 283.78 -1.48 289.17 C-4.92 292.69 -8.8 295.05 -13.23 297.15 C-15.6 298.29 -17.68 299.75 -19.8 301.28 C-21.16 302.17 -22.52 303.05 -23.88 303.94 C-29.9 307.91 -35.86 311.96 -41.75 316.12 C-42.1 316.37 -42.1 316.37 -43.86 317.61 C-47.29 320.03 -50.67 322.49 -54 325.05 C-54.63 325.52 -55.27 326 -55.92 326.49 C-57.11 327.39 -58.28 328.3 -59.45 329.23 C-61.05 330.43 -61.05 330.43 -64 332 C-67.59 330.88 -70.86 329.11 -74.18 327.38 C-75.18 326.86 -76.18 326.35 -77.21 325.81 C-77.74 325.53 -77.74 325.53 -80.44 324.12 C-81.55 323.55 -82.66 322.97 -83.8 322.37 C-91.93 318.12 -100.01 313.76 -108.06 309.34 C-116.98 304.44 -125.98 299.71 -135 295 C-135.1 295.68 -135.2 296.35 -135.31 297.05 C-136.15 300.64 -137.56 303.86 -139.07 307.2 C-139.23 307.55 -139.23 307.55 -140.02 309.33 C-141.05 311.64 -142.09 313.94 -143.12 316.25 C-143.85 317.87 -144.58 319.49 -145.3 321.11 C-150.67 333.1 -156.09 345.05 -161.54 357 C-164.6 363.71 -167.65 370.42 -170.65 377.16 C-170.95 377.82 -171.24 378.48 -171.55 379.16 C-172.93 382.27 -174.32 385.38 -175.7 388.49 C-178.64 395.08 -181.7 401.58 -185 408 C-185.66 408 -186.32 408 -187 408 C-188.52 406.3 -188.52 406.3 -190.38 403.88 C-194.45 398.63 -198.74 393.62 -203.14 388.65 C-207 384.22 -207 384.22 -207 382 C-207.66 382 -208.32 382 -209 382 C-210.35 380.51 -211.63 378.96 -212.88 377.38 C-216.45 372.91 -220.08 368.52 -223.81 364.19 C-224.32 363.6 -224.82 363.02 -225.34 362.41 C-226.89 360.61 -228.45 358.8 -230 357 C-236.31 349.68 -242.58 342.33 -248.67 334.82 C-251.32 331.61 -254.03 328.46 -256.75 325.31 C-261.3 320.03 -265.77 314.7 -270.19 309.31 C-270.75 308.63 -271.32 307.95 -271.9 307.24 C-272.42 306.6 -272.94 305.96 -273.48 305.3 C-273.71 305.02 -273.71 305.02 -274.88 303.59 C-276 302 -276 302 -277 299 C-269.8 290.88 -262.37 282.97 -254.94 275.06 C-247.1 266.72 -239.29 258.33 -231.53 249.91 C-224.79 242.6 -218 235.35 -211.21 228.08 C-205.12 221.57 -199.04 215.06 -193 208.5 C-185.77 200.66 -178.49 192.87 -171.21 185.08 C-165.12 178.57 -159.04 172.06 -153 165.5 C-145.77 157.66 -138.49 149.87 -131.21 142.08 C-125.12 135.57 -119.04 129.06 -113 122.5 C-105.77 114.66 -98.49 106.87 -91.21 99.08 C-85.12 92.57 -79.04 86.06 -73 79.5 C-65.77 71.66 -58.49 63.87 -51.21 56.08 C-44.63 49.05 -38.07 42 -31.54 34.92 C-27.69 30.74 -23.82 26.59 -19.94 22.44 C-15.53 17.72 -11.13 13 -6.75 8.25 C-6.31 7.78 -6.31 7.78 -4.11 5.39 C-2 3 -2 3 0 0 Z " fill="#DED5EF" transform="translate(512,105)"/>
<path d="M0 0 C3.49 1.48 5.64 3.46 8.25 6.19 C10.97 8.96 13.67 11.66 16.62 14.19 C20.6 17.6 24.43 21.17 28.25 24.75 C36.45 32.43 44.71 40.05 53.06 47.56 C53.81 48.26 54.56 48.95 55.33 49.67 C58 52 58 52 60.85 53.94 C65.58 57.42 69 60.24 69.96 66.14 C70.41 71.21 70.24 76.27 70.07 81.35 C70.05 83.22 70.04 85.09 70.03 86.96 C69.99 91.85 69.88 96.74 69.76 101.63 C69.64 106.63 69.59 111.63 69.54 116.63 C69.42 126.42 69.23 136.21 69 146 C74.21 145.22 79.42 144.43 84.63 143.64 C86.39 143.37 88.15 143.11 89.92 142.84 C105.46 140.51 120.9 137.76 136.23 134.27 C136.62 134.18 136.62 134.18 138.58 133.74 C173.72 125.67 208.45 115.57 242.81 104.69 C244.02 104.31 245.23 103.92 246.47 103.53 C294.27 88.39 341.72 71.88 388.3 53.33 C388.98 53.06 389.66 52.79 390.36 52.51 C393.38 51.31 396.38 50.09 399.38 48.86 C400.37 48.45 401.36 48.05 402.38 47.64 C403.21 47.3 404.04 46.95 404.9 46.59 C407 46 407 46 410 47 C407.85 50.88 405.68 54.75 403.47 58.6 C401.94 61.28 400.51 63.96 399.18 66.75 C395.95 73 393.4 76.39 386.61 78.61 C385.17 79.11 383.72 79.61 382.28 80.12 C381.45 80.41 380.63 80.7 379.78 80.99 C374.79 82.8 369.88 84.81 364.96 86.8 C362.36 87.85 359.75 88.9 357.15 89.94 C355.09 90.77 353.04 91.59 350.99 92.42 C307.27 110.01 263.36 127.09 219 143 C218.62 143.14 218.62 143.14 216.72 143.82 C178.2 157.65 139.46 171.11 100 182 C98.31 182.48 96.63 182.95 94.94 183.43 C91.37 184.45 87.79 185.43 84.2 186.4 C82.67 186.82 81.14 187.24 79.61 187.67 C66.7 191.3 53.71 194.18 40.56 196.75 C39.81 196.9 39.06 197.05 38.28 197.2 C19.93 200.8 2.21 203.57 -16.44 200.38 C-17.52 200.19 -18.59 200.01 -19.7 199.83 C-23.14 199.24 -26.57 198.62 -30 198 C-31.07 197.81 -32.15 197.61 -33.25 197.42 C-128.52 179.9 -221.05 142.19 -324 102 C-324.67 101.74 -325.35 101.47 -326.04 101.2 C-340.61 95.47 -355.11 89.6 -369.5 83.44 C-370.67 82.94 -371.84 82.44 -373.04 81.92 C-388.38 75.3 -388.38 75.3 -392.69 68.75 C-393.54 67.5 -394.4 66.25 -395.25 65.01 C-395.7 64.36 -396.14 63.71 -396.59 63.04 C-399.03 59.51 -401.58 56.07 -404.12 52.62 C-405.07 51.35 -406.01 50.07 -406.95 48.79 C-407.62 47.87 -408.3 46.95 -409 46 C-404.84 44.61 -402.21 46.23 -398.34 47.83 C-397.58 48.14 -396.81 48.45 -396.02 48.76 C-394.38 49.43 -392.73 50.09 -391.08 50.76 C-386.73 52.53 -382.36 54.27 -378 56.02 C-377.56 56.19 -377.56 56.19 -375.36 57.07 C-363.99 61.62 -352.51 65.83 -341 70 C-339.62 70.5 -338.24 71 -336.87 71.51 C-284.59 90.57 -231.83 108.8 -178 123 C-177.37 123.17 -176.74 123.33 -176.09 123.51 C-150.34 130.33 -124.55 136.58 -98.31 141.25 C-97.96 141.31 -97.96 141.31 -96.19 141.63 C-94.14 141.99 -92.1 142.35 -90.05 142.7 C-89.47 142.8 -89.47 142.8 -86.51 143.32 C-79.7 144.41 -72.84 145.17 -66 146 C-66.03 144.97 -66.06 143.95 -66.09 142.89 C-66.35 133.18 -66.55 123.48 -66.67 113.77 C-66.74 108.77 -66.83 103.78 -66.98 98.79 C-67.12 93.97 -67.2 89.15 -67.23 84.32 C-67.26 82.49 -67.3 80.66 -67.37 78.83 C-67.93 63.76 -67.93 63.76 -63.17 58.26 C-60.02 55.15 -56.58 52.59 -53 50 C-51.54 48.68 -50.1 47.34 -48.69 45.97 C-48.38 45.68 -48.38 45.68 -46.83 44.22 C-46.23 43.65 -45.62 43.09 -45 42.5 C-39.65 37.47 -34.28 32.47 -28.87 27.5 C-23.98 22.99 -19.12 18.44 -14.26 13.89 C-10.36 10.24 -6.41 6.67 -2.32 3.23 C-1 2 -1 2 0 0 Z " fill="#FDFDFE" transform="translate(511,502)"/>
<path d="M0 0 C2.95 0.9 5.28 2.12 7.94 3.69 C8.97 4.29 10 4.9 11.06 5.51 C12.16 6.17 13.26 6.82 14.39 7.49 C16.75 8.87 19.1 10.25 21.46 11.62 C22.06 11.97 22.66 12.32 23.28 12.68 C29.25 16.18 35.28 19.56 41.33 22.93 C47.36 26.29 53.39 29.65 59.37 33.08 C70.89 39.66 82.52 45.95 94.33 51.96 C99.36 54.53 104.28 57.14 109.09 60.09 C112.37 62.09 115.46 63.71 119.14 64.87 C122.59 65.96 125.72 67.32 128.93 68.97 C136.31 72.72 143.96 75.88 151.58 79.12 C153.16 79.79 154.73 80.46 156.31 81.14 C164.33 84.56 172.35 87.95 180.39 91.31 C186.06 93.67 191.64 96.18 197.19 98.82 C204.06 102.06 211.05 105.05 218.02 108.06 C218.67 108.34 219.33 108.62 220 108.91 C220.66 109.2 221.32 109.48 222 109.77 C223.32 110.34 224.65 110.92 225.98 111.49 C226.63 111.77 227.29 112.06 227.96 112.35 C233.89 114.91 239.8 117.51 245.71 120.12 C255.32 124.36 264.95 128.54 274.6 132.7 C287.1 138.09 299.57 143.52 312 149.07 C321.8 153.44 331.61 157.77 341.43 162.09 C343.26 162.89 345.09 163.69 346.91 164.5 C365.5 172.69 365.5 172.69 373.64 175.81 C373.64 176.8 373.64 177.79 373.64 178.81 C372.62 179.16 371.59 179.52 370.54 179.88 C360.8 183.27 351.16 186.88 341.56 190.64 C293.09 209.55 243.8 227.9 193.64 241.81 C189.1 232.11 184.61 222.38 180.21 212.62 C180.06 212.29 180.06 212.29 179.32 210.66 C173.97 198.81 168.7 186.93 163.43 175.05 C158.86 164.75 154.23 154.48 149.51 144.25 C145.89 136.38 142.39 128.46 138.92 120.53 C135.29 112.25 131.6 103.99 127.89 95.74 C123.42 85.79 118.98 75.82 114.64 65.81 C110.41 67.32 106.73 69.47 102.96 71.87 C102.62 72.08 102.62 72.08 100.9 73.16 C91.41 79.18 82.04 85.36 72.65 91.53 C67.9 94.64 63.14 97.74 58.38 100.84 C51.12 105.57 43.86 110.31 36.64 115.12 C36.06 115.5 35.48 115.89 34.88 116.28 C31.74 118.37 28.66 120.5 25.61 122.71 C24.93 123.18 24.26 123.66 23.57 124.15 C22.28 125.06 21 125.99 19.74 126.94 C17.98 128.16 17.98 128.16 14.64 129.81 C10.45 128.76 6.88 126.98 3.14 124.86 C2.08 124.26 1.03 123.67 -0.06 123.06 C-1.19 122.42 -2.32 121.78 -3.48 121.12 C-5.91 119.75 -8.35 118.39 -10.78 117.02 C-11.41 116.67 -12.03 116.33 -12.67 115.96 C-19.29 112.27 -25.98 108.68 -32.67 105.12 C-40.84 100.76 -48.99 96.38 -57.11 91.93 C-71.44 84.07 -85.91 76.45 -100.36 68.81 C-99.21 65.36 -98.5 64.93 -95.59 62.94 C-95.19 62.67 -95.19 62.67 -93.17 61.27 C-92.31 60.69 -91.44 60.1 -90.54 59.49 C-88.71 58.23 -86.88 56.97 -85.06 55.72 C-84.11 55.07 -83.17 54.42 -82.2 53.76 C-78.58 51.27 -74.99 48.75 -71.41 46.23 C-63.46 40.64 -55.47 35.15 -47.36 29.81 C-44.6 27.98 -41.86 26.14 -39.11 24.31 C-37.58 23.29 -36.05 22.27 -34.52 21.25 C-34.12 20.98 -34.12 20.98 -32.05 19.6 C-2.36 -0.19 -2.36 -0.19 0 0 Z " fill="#B29FD8" transform="translate(548.3564453125,369.194580078125)"/>
<path d="M0 0 C4.17 1.34 8.18 2.86 12.21 4.58 C12.81 4.84 12.81 4.84 15.87 6.14 C16.51 6.41 17.15 6.68 17.81 6.96 C33.49 13.62 49.29 19.94 65.17 26.12 C68.58 27.45 71.99 28.78 75.4 30.12 C117.62 46.69 160.16 62.41 203 77.3 C205.05 78.02 207.09 78.73 209.14 79.45 C253.94 95.18 299.43 109.48 346 119 C346.94 119.19 347.87 119.39 348.84 119.58 C361.82 122.23 374.87 124.24 388 126 C384.69 127.82 381.37 128.85 377.74 129.88 C376.49 130.24 375.24 130.6 373.95 130.97 C373.29 131.16 372.62 131.34 371.94 131.54 C368.41 132.54 364.88 133.56 361.36 134.57 C360.64 134.78 359.93 134.99 359.19 135.2 C352.83 137.04 346.51 138.97 340.19 140.94 C332.88 143.21 325.56 145.44 318.21 147.58 C317.45 147.8 316.7 148.02 315.91 148.25 C312.19 149.34 308.46 150.42 304.73 151.5 C297.95 153.47 291.28 155.57 284.67 158.05 C279.67 159.83 274.55 161.17 269.44 162.56 C267.31 163.15 265.18 163.73 263.06 164.32 C262.04 164.6 261.02 164.87 259.98 165.16 C256.34 166.19 252.74 167.31 249.14 168.46 C247 169 247 169 243 169 C248.36 177.97 253.7 186.82 259.98 195.18 C262.91 199.27 265.52 203.55 268.16 207.83 C270.92 212.3 273.76 216.7 276.69 221.06 C282.9 230.31 288.96 239.65 295.04 248.98 C297.6 252.92 300.17 256.86 302.74 260.79 C308.48 269.59 314.21 278.4 319.93 287.21 C323.06 292.03 326.2 296.84 329.34 301.64 C329.72 302.21 330.09 302.79 330.48 303.38 C332.32 306.19 334.16 309 336 311.81 C339.8 317.61 343.56 323.44 347.28 329.3 C350.23 333.93 353.24 338.53 356.25 343.12 C361.68 351.44 367.1 359.75 372.48 368.1 C374.2 370.78 375.95 373.44 377.71 376.09 C378.14 376.74 378.57 377.39 379.01 378.05 C379.82 379.28 380.63 380.5 381.45 381.71 C382.36 383.1 383.19 384.55 384 386 C383.67 386.66 383.34 387.32 383 388 C372.56 377.58 362.12 367.16 351.68 356.73 C346.83 351.89 341.98 347.05 337.14 342.21 C332.45 337.54 327.77 332.86 323.09 328.19 C321.31 326.41 319.53 324.63 317.74 322.85 C315.24 320.35 312.73 317.85 310.23 315.34 C309.5 314.62 308.77 313.89 308.01 313.14 C304.75 309.87 301.59 306.58 298.58 303.08 C294.45 298.29 289.99 293.86 285.5 289.41 C284.08 287.99 282.66 286.57 281.24 285.15 C279.73 283.64 278.21 282.13 276.7 280.62 C273.52 277.46 270.35 274.3 267.19 271.13 C260.46 264.42 253.73 257.71 247 251 C239.73 243.75 232.46 236.51 225.2 229.25 C222.06 226.12 218.91 222.98 215.77 219.85 C214.28 218.36 212.79 216.88 211.3 215.4 C209.5 213.59 207.69 211.8 205.89 210 C201.69 205.8 197.68 201.53 193.81 197.03 C190.21 192.99 186.34 189.22 182.5 185.41 C181.08 183.99 179.66 182.57 178.24 181.15 C176.73 179.64 175.21 178.13 173.7 176.62 C170.52 173.46 167.35 170.3 164.19 167.13 C157.46 160.42 150.73 153.71 144 147 C136.73 139.75 129.46 132.51 122.2 125.25 C119.06 122.12 115.91 118.98 112.77 115.85 C111.28 114.36 109.79 112.88 108.3 111.4 C106.5 109.59 104.69 107.8 102.89 106 C98.68 101.79 94.65 97.51 90.77 92.99 C87.39 89.19 83.75 85.64 80.14 82.06 C79.29 81.21 78.43 80.35 77.54 79.47 C75.22 77.15 72.88 74.83 70.55 72.52 C68.11 70.08 65.66 67.65 63.22 65.21 C54.91 56.93 46.6 48.66 38.29 40.38 C33.68 35.8 29.08 31.22 24.48 26.63 C22.06 24.21 19.62 21.79 17.19 19.37 C14.48 16.68 11.78 13.99 9.08 11.29 C8.27 10.49 7.46 9.69 6.63 8.87 C5.9 8.14 5.17 7.4 4.41 6.65 C3.78 6.01 3.14 5.38 2.48 4.72 C1 3 1 3 0 0 Z " fill="#8172C5" transform="translate(125,578)"/>
<path d="M0 0 C1.33 2.48 2.48 4.89 3.59 7.46 C3.93 8.23 4.27 9 4.62 9.79 C5.74 12.31 6.84 14.84 7.94 17.38 C8.71 19.13 9.48 20.88 10.26 22.64 C11.8 26.15 13.35 29.65 14.88 33.17 C17.58 39.33 20.32 45.48 23.06 51.62 C25.65 57.45 28.24 63.28 30.82 69.11 C37.98 85.27 45.16 101.42 52.5 117.5 C57.62 128.74 62.71 139.99 67.74 151.27 C68.45 152.87 69.16 154.46 69.87 156.05 C70.86 158.27 71.85 160.48 72.83 162.7 C73.12 163.35 73.42 164 73.72 164.67 C75.36 168.39 76.78 172.12 78 176 C63.64 181.01 49.19 185.24 34.48 189.08 C30.95 190.01 27.43 190.97 23.91 191.94 C-1.6 198.91 -27.22 205.06 -53.31 209.44 C-54.05 209.56 -54.8 209.69 -55.56 209.82 C-57.7 210.18 -59.84 210.53 -61.99 210.87 C-63.2 211.07 -64.41 211.26 -65.66 211.46 C-71.74 212.31 -77.88 212.61 -84 213 C-83.99 211.97 -83.97 210.94 -83.96 209.89 C-83.83 200.16 -83.77 190.44 -83.77 180.71 C-83.77 175.71 -83.74 170.72 -83.67 165.72 C-83.6 160.89 -83.58 156.06 -83.61 151.23 C-83.61 149.39 -83.59 147.55 -83.55 145.72 C-83.22 130.61 -83.22 130.61 -87.61 125.49 C-90.49 122.65 -93.7 120.33 -97 118 C-98.49 116.66 -99.96 115.29 -101.39 113.89 C-101.71 113.59 -101.71 113.59 -103.35 112.04 C-104.63 110.83 -105.91 109.62 -107.2 108.41 C-111.11 104.72 -115.1 101.14 -119.19 97.64 C-123 94.18 -126.15 90.27 -129 86 C-129 84.68 -129 83.36 -129 82 C-126.74 80.13 -124.58 78.57 -122.12 77 C-121.41 76.53 -120.69 76.05 -119.96 75.56 C-118.43 74.55 -116.89 73.54 -115.36 72.54 C-113.05 71.03 -110.75 69.5 -108.46 67.96 C-104.68 65.43 -100.89 62.91 -97.1 60.4 C-94.66 58.77 -92.22 57.15 -89.78 55.52 C-88.62 54.75 -87.47 53.98 -86.31 53.21 C-82.65 50.77 -78.99 48.32 -75.33 45.87 C-52.76 30.74 -52.76 30.74 -42.36 24.34 C-38.07 21.69 -33.87 18.94 -29.69 16.12 C-23.74 12.14 -17.77 8.19 -11.75 4.31 C-10.93 3.77 -10.1 3.23 -9.26 2.67 C-8.49 2.18 -7.72 1.68 -6.92 1.18 C-6.24 0.73 -5.55 0.29 -4.85 -0.17 C-3 -1 -3 -1 0 0 Z " fill="#715BC1" transform="translate(664,435)"/>
<path d="M0 0 C4.18 1.29 7.89 2.87 11.73 4.95 C12.83 5.54 13.93 6.14 15.06 6.75 C16.25 7.39 17.44 8.04 18.62 8.69 C19.86 9.35 21.09 10.02 22.32 10.69 C24.9 12.08 27.48 13.47 30.05 14.87 C33.97 16.99 37.9 19.09 41.82 21.19 C42.14 21.36 42.14 21.36 43.74 22.21 C46.19 23.52 48.65 24.83 51.1 26.14 C57.11 29.35 63.11 32.57 69 36 C67.68 39.06 66.47 40.69 63.72 42.56 C63.38 42.79 63.38 42.79 61.7 43.96 C60.97 44.45 60.25 44.93 59.5 45.44 C57.95 46.51 56.4 47.58 54.84 48.66 C54.04 49.21 53.24 49.76 52.41 50.33 C48.58 52.99 44.78 55.71 41 58.44 C40.25 58.98 39.51 59.51 38.74 60.07 C32.12 64.87 25.62 69.83 19.14 74.82 C15.15 77.9 11.11 80.92 7.06 83.94 C0.46 88.87 -6.06 93.91 -12.56 98.99 C-17.72 103.02 -22.92 106.99 -28.17 110.89 C-30.24 112.43 -32.29 113.98 -34.33 115.55 C-34.88 115.97 -35.43 116.39 -36 116.82 C-37.54 117.99 -39.07 119.17 -40.6 120.35 C-43 122 -43 122 -45 122 C-46.86 119.79 -48.38 117.39 -50 115 C-51.98 119.29 -53.96 123.58 -56 128 C-56.63 127.96 -56.63 127.96 -59.84 127.78 C-107.08 125.29 -159.07 125.21 -205.34 135.98 C-210.91 137.26 -216.54 138.02 -222.19 138.81 C-229.88 139.92 -237.56 141.07 -245.23 142.37 C-245.9 142.49 -246.58 142.6 -247.28 142.72 C-250.58 143.28 -253.88 143.85 -257.17 144.43 C-258.37 144.63 -259.57 144.84 -260.8 145.05 C-261.33 145.14 -261.33 145.14 -263.99 145.6 C-267.03 146 -269.94 146.07 -273 146 C-271.46 142.29 -269.19 140.02 -266.31 137.25 C-262.57 133.59 -259.05 129.84 -255.64 125.86 C-253.49 123.42 -251.17 121.16 -248.84 118.87 C-247.07 117.07 -245.41 115.21 -243.76 113.29 C-240.05 109.03 -236.2 104.91 -232.31 100.81 C-227.49 95.71 -222.69 90.6 -217.94 85.44 C-213.49 80.6 -209 75.79 -204.5 71 C-199.47 65.64 -194.46 60.27 -189.49 54.86 C-185.08 50.08 -180.65 45.33 -176.21 40.58 C-172.96 37.11 -169.73 33.63 -166.51 30.13 C-164.56 28.02 -162.6 25.9 -160.65 23.79 C-159.45 22.49 -158.26 21.19 -157.07 19.9 C-155.03 17.68 -152.98 15.46 -150.94 13.25 C-150.29 12.55 -149.65 11.84 -148.99 11.12 C-148.38 10.46 -147.78 9.81 -147.15 9.14 C-146.88 8.85 -146.88 8.85 -145.53 7.38 C-144 6 -144 6 -141 5 C-140.43 5.76 -139.86 6.53 -139.27 7.32 C-134.01 14.29 -128.51 20.98 -122.75 27.55 C-119.58 31.17 -116.47 34.82 -113.44 38.56 C-108.09 45.16 -102.54 51.57 -97 58 C-76.15 82.19 -76.15 82.19 -74 87 C-73.34 87 -72.68 87 -72 87 C-70.48 88.7 -70.48 88.7 -68.62 91.12 C-64.55 96.37 -60.26 101.38 -55.86 106.35 C-52 110.78 -52 110.78 -52 113 C-48.54 110.22 -47.14 106.32 -45.4 102.36 C-45.23 101.98 -45.23 101.98 -44.35 100.02 C-43.21 97.45 -42.07 94.88 -40.94 92.31 C-40.14 90.51 -39.33 88.71 -38.53 86.91 C-36.86 83.16 -35.19 79.41 -33.52 75.65 C-29.96 67.66 -26.36 59.69 -22.76 51.71 C-17.13 39.21 -11.51 26.71 -5.94 14.19 C-5.44 13.08 -4.95 11.97 -4.44 10.83 C-4.22 10.33 -4.22 10.33 -3.09 7.79 C-2.71 6.93 -2.32 6.07 -1.93 5.18 C-1 3 -1 3 0 0 Z " fill="#B3A1D8" transform="translate(377,400)"/>
<path d="M0 0 C0 87.45 0 174.9 0 265 C-3.82 262.13 -4.78 261.03 -6.81 257 C-9.89 251.11 -13.39 245.6 -17.06 240.06 C-18.4 238.03 -19.73 236 -21.07 233.97 C-21.73 232.97 -22.39 231.96 -23.07 230.93 C-25.9 226.63 -28.7 222.32 -31.5 218 C-36.2 210.76 -40.91 203.54 -45.62 196.31 C-50.41 188.98 -55.18 181.64 -59.94 174.28 C-64.01 167.98 -68.09 161.7 -72.18 155.41 C-74.64 151.64 -77.09 147.86 -79.53 144.08 C-86.58 133.14 -93.72 122.26 -100.87 111.39 C-105.2 104.79 -109.54 98.19 -113.86 91.57 C-114.24 90.99 -114.62 90.41 -115.01 89.81 C-116.78 87.1 -118.55 84.39 -120.32 81.67 C-124.22 75.7 -128.15 69.76 -132.11 63.83 C-134.76 59.86 -137.39 55.87 -140 51.88 C-140.49 51.14 -140.98 50.4 -141.48 49.63 C-141.71 49.28 -141.71 49.28 -142.88 47.49 C-143.28 46.87 -143.69 46.24 -144.12 45.6 C-145 44 -145 44 -145 42 C-118.69 34.12 -118.69 34.12 -109.75 31.81 C-105.2 30.63 -100.77 29.29 -96.32 27.76 C-86.98 24.6 -77.52 21.81 -68.06 19 C-64.64 17.98 -61.21 16.96 -57.79 15.94 C-56.95 15.69 -56.12 15.44 -55.26 15.18 C-50.05 13.63 -44.85 12.03 -39.67 10.39 C-32.23 8.05 -24.75 5.84 -17.25 3.69 C-16.64 3.51 -16.64 3.51 -13.52 2.6 C-12.35 2.26 -11.17 1.92 -9.95 1.57 C-8.9 1.27 -7.85 0.97 -6.77 0.66 C-4 0 -4 0 0 0 Z " fill="#5D4AB5" transform="translate(513,705)"/>
<path d="M0 0 C0.66 0 1.32 0 2 0 C17.89 33.61 17.89 33.61 23.71 46.67 C26.78 53.54 29.95 60.37 33.12 67.19 C38.55 78.83 43.88 90.5 49.19 102.2 C49.82 103.6 50.46 104.99 51.09 106.39 C51.41 107.09 51.72 107.79 52.05 108.51 C55.81 116.78 59.59 125.05 63.38 133.31 C67.87 143.14 72.35 152.98 76.77 162.84 C79.8 169.59 82.9 176.29 86 183 C89.81 191.23 93.58 199.48 97.29 207.76 C99.74 213.23 102.23 218.69 104.73 224.14 C105.06 224.87 105.4 225.6 105.74 226.35 C106.43 227.86 107.13 229.38 107.82 230.89 C113.41 243.07 118.95 255.27 124.29 267.57 C126.85 273.45 129.51 279.28 132.24 285.09 C135.38 291.79 138.46 298.52 141.51 305.27 C142.14 306.65 142.77 308.04 143.4 309.43 C144.33 311.47 145.26 313.51 146.18 315.55 C146.73 316.74 147.27 317.94 147.83 319.17 C149 322 149 322 149 324 C142.98 322.34 137.8 319.31 132.38 316.31 C130.22 315.13 128.07 313.95 125.91 312.77 C124.78 312.16 123.65 311.54 122.49 310.9 C118.98 308.99 115.46 307.1 111.93 305.23 C111.35 304.91 110.76 304.6 110.16 304.28 C109.86 304.13 109.86 304.13 108.38 303.33 C96.41 296.97 84.55 290.43 72.81 283.63 C70.19 282.11 67.55 280.59 64.92 279.08 C62.55 277.73 60.18 276.36 57.81 275 C56.11 274.03 54.4 273.05 52.7 272.07 C52.18 271.77 52.18 271.77 49.54 270.25 C48.56 269.69 47.58 269.13 46.57 268.55 C44.47 267.28 42.52 265.96 40.56 264.5 C38 263 38 263 35.61 262.96 C31.89 264.44 28.66 266.46 25.31 268.62 C24.6 269.08 23.9 269.53 23.17 269.99 C18.45 273 13.83 276.13 9.31 279.43 C6.32 281.46 3.14 283.21 0 285 C0 190.95 0 96.9 0 0 Z " fill="#D9CDEC" transform="translate(512,107)"/>
<path d="M0 0 C0.33 0.33 0.33 0.33 2 2 C1.34 2 0.68 2 0 2 C0 80.21 0 158.42 0 239 C-3.85 237.46 -5.7 236.68 -8.67 234.21 C-9.33 233.66 -9.99 233.12 -10.67 232.56 C-11.36 231.98 -12.04 231.41 -12.75 230.81 C-14.19 229.62 -15.63 228.44 -17.07 227.25 C-17.75 226.68 -18.44 226.12 -19.14 225.53 C-22.7 222.6 -26.35 219.8 -30 217 C-30.91 216.29 -31.82 215.58 -32.76 214.85 C-36.16 212.22 -39.57 209.6 -43 207 C-43.73 206.45 -44.45 205.9 -45.2 205.33 C-67.94 188.11 -91.61 170.73 -121.5 174.56 C-140.91 178.19 -159.33 187.34 -176.06 197.5 C-176.93 198.02 -177.8 198.54 -178.7 199.08 C-184.57 202.74 -189.32 206.91 -194 212 C-194 209 -194 209 -191.84 206.58 C-190.88 205.65 -189.91 204.73 -188.94 203.81 C-187.92 202.83 -186.9 201.84 -185.89 200.85 C-185.64 200.61 -185.64 200.61 -184.38 199.38 C-181.98 196.98 -179.81 194.4 -177.61 191.83 C-175.46 189.39 -173.16 187.15 -170.84 184.87 C-169.07 183.07 -167.41 181.21 -165.76 179.29 C-162.05 175.03 -158.2 170.91 -154.31 166.81 C-149.49 161.71 -144.69 156.6 -139.94 151.44 C-135.49 146.6 -131 141.79 -126.5 137 C-121.96 132.16 -117.43 127.32 -112.94 122.44 C-105.73 114.62 -98.47 106.85 -91.21 99.08 C-85.12 92.57 -79.04 86.06 -73 79.5 C-65.77 71.66 -58.49 63.87 -51.21 56.08 C-44.63 49.05 -38.07 42 -31.54 34.92 C-27.69 30.74 -23.82 26.59 -19.94 22.44 C-15.53 17.72 -11.13 13 -6.75 8.25 C-6.31 7.78 -6.31 7.78 -4.11 5.39 C-2 3 -2 3 0 0 Z " fill="#EDE7F6" transform="translate(512,105)"/>
<path d="M0 0 C0.84 1.24 1.62 2.52 2.38 3.81 C5.15 7.66 7.4 8.76 11.95 9.98 C45.65 19.57 77.75 35.38 109 51 C109 75.09 109 99.18 109 124 C98.69 123.31 88.86 122.39 78.75 120.56 C78.04 120.44 77.34 120.31 76.61 120.18 C57.3 116.73 38.23 112.17 19.18 107.53 C17.31 107.07 15.44 106.62 13.56 106.17 C-22.72 97.39 -58.6 85.8 -94 74 C-92.5 70.29 -90.45 68.5 -87.31 66.06 C-82.58 62.3 -77.99 58.42 -73.44 54.44 C-68.61 50.23 -63.74 46.11 -58.71 42.14 C-55.19 39.36 -51.72 36.52 -48.25 33.69 C-41.47 28.17 -34.63 22.74 -27.74 17.36 C-25.93 15.95 -24.13 14.52 -22.33 13.08 C-4.15 -1.38 -4.15 -1.38 0 0 Z " fill="#6C55BB" transform="translate(335,524)"/>
<path d="M0 0 C-1.59 3.86 -4.04 6.29 -6.98 9.21 C-7.49 9.72 -8 10.24 -8.53 10.76 C-10.24 12.48 -11.96 14.19 -13.68 15.89 C-14.91 17.12 -16.14 18.35 -17.37 19.58 C-20.02 22.23 -22.68 24.87 -25.33 27.51 C-29.54 31.69 -33.73 35.88 -37.93 40.07 C-44.57 46.7 -51.22 53.33 -57.87 59.95 C-69.76 71.8 -81.64 83.65 -93.52 95.51 C-97.69 99.67 -101.86 103.83 -106.03 107.98 C-108.64 110.57 -111.24 113.17 -113.84 115.76 C-115.04 116.96 -116.24 118.16 -117.44 119.35 C-122.99 124.87 -128.49 130.38 -133.57 136.34 C-135.59 138.69 -137.74 140.92 -139.91 143.15 C-140.8 144.07 -141.7 144.99 -142.63 145.95 C-146.14 149.54 -149.67 153.13 -153.21 156.7 C-155.88 159.41 -158.55 162.13 -161.2 164.86 C-163.79 167.53 -166.39 170.17 -169.01 172.81 C-170 173.81 -170.98 174.82 -171.95 175.83 C-173.32 177.25 -174.7 178.63 -176.09 180.02 C-176.87 180.81 -177.65 181.61 -178.46 182.43 C-181 184 -181 184 -184.61 183.8 C-187.94 183.01 -191.21 182.17 -194.49 181.19 C-199.48 179.72 -204.48 178.32 -209.51 177 C-210.76 176.67 -212.02 176.34 -213.31 176 C-215.86 175.33 -218.41 174.66 -220.96 174 C-228.75 171.95 -236.4 169.66 -244 167 C-242.29 162.5 -239.97 158.68 -237.31 154.69 C-232.58 147.48 -227.99 140.2 -223.44 132.88 C-218.9 125.58 -214.31 118.35 -209.5 111.24 C-206.11 106.21 -202.89 101.09 -199.69 95.93 C-196.16 90.24 -192.55 84.61 -188.91 78.99 C-187.7 77.1 -186.54 75.18 -185.43 73.23 C-183.22 69.79 -180.37 68.66 -176.66 67.33 C-175.78 67.01 -174.89 66.69 -173.98 66.36 C-173.02 66.02 -172.05 65.67 -171.05 65.32 C-168.95 64.56 -166.85 63.8 -164.74 63.04 C-164.18 62.84 -164.18 62.84 -161.36 61.82 C-118.21 46.27 -75.62 29.34 -33.06 12.27 C-31.91 11.8 -30.76 11.34 -29.58 10.87 C-24.57 8.86 -19.57 6.83 -14.59 4.74 C-14.19 4.58 -14.19 4.58 -12.17 3.73 C-10.74 3.13 -9.31 2.53 -7.88 1.92 C-5.06 0.73 -3.09 0 0 0 Z " fill="#846AC0" transform="translate(903,578)"/>
<path d="M0 0 C4.17 1.34 8.18 2.86 12.21 4.58 C12.81 4.84 12.81 4.84 15.87 6.14 C16.51 6.41 17.15 6.68 17.81 6.96 C33.49 13.62 49.29 19.94 65.17 26.12 C69.53 27.81 73.88 29.52 78.24 31.23 C83.26 33.2 88.29 35.16 93.31 37.12 C93.82 37.32 93.82 37.32 96.39 38.33 C108.75 43.14 121.15 47.82 133.63 52.3 C134.83 52.73 136.04 53.17 137.27 53.61 C143.12 55.71 148.96 57.8 154.82 59.86 C156.93 60.61 159.04 61.37 161.15 62.12 C162.12 62.46 163.1 62.79 164.1 63.14 C164.98 63.45 165.87 63.77 166.78 64.1 C167.55 64.37 168.32 64.65 169.12 64.93 C171.47 66.27 171.99 67.52 173 70 C173.82 71.23 174.67 72.43 175.55 73.62 C175.8 73.97 175.8 73.97 177.09 75.73 C177.64 76.48 178.18 77.23 178.75 78 C183.59 84.64 188.36 91.32 193.06 98.06 C194.24 99.76 195.42 101.45 196.61 103.14 C197.18 103.96 197.75 104.78 198.34 105.62 C200.84 109.2 203.36 112.75 205.88 116.31 C213.31 126.83 220.66 137.41 228 148 C228.65 148.93 229.3 149.87 229.96 150.83 C231.79 153.47 233.62 156.11 235.44 158.75 C235.99 159.54 236.54 160.33 237.1 161.15 C237.35 161.51 237.35 161.51 238.62 163.36 C239.06 163.99 239.5 164.63 239.95 165.28 C241 167 241 167 242 170 C233.88 173.11 225.68 175.61 217.31 177.94 C208.1 180.52 198.96 183.2 189.91 186.29 C186.86 187.03 185.86 187.05 183 186 C181.17 184.54 181.17 184.54 179.26 182.63 C178.54 181.91 177.81 181.19 177.06 180.44 C176.66 180.04 176.66 180.04 174.67 178.03 C173.83 177.19 172.99 176.36 172.13 175.49 C169.83 173.2 167.54 170.9 165.26 168.59 C162.86 166.18 160.45 163.77 158.04 161.36 C153.99 157.31 149.95 153.25 145.91 149.19 C140.75 144 135.57 138.82 130.4 133.64 C125.93 129.16 121.47 124.69 117.01 120.21 C115.58 118.78 114.16 117.36 112.73 115.93 C110.06 113.25 107.39 110.56 104.72 107.88 C103.94 107.1 103.15 106.31 102.35 105.51 C98.96 102.09 95.65 98.65 92.51 95 C88.6 90.47 84.39 86.27 80.14 82.06 C79.29 81.21 78.43 80.35 77.54 79.47 C75.22 77.15 72.88 74.83 70.55 72.52 C68.11 70.08 65.66 67.65 63.22 65.21 C54.91 56.93 46.6 48.66 38.29 40.38 C33.68 35.8 29.08 31.22 24.48 26.63 C22.06 24.21 19.62 21.79 17.19 19.37 C14.48 16.68 11.78 13.99 9.08 11.29 C8.27 10.49 7.46 9.69 6.63 8.87 C5.9 8.14 5.17 7.4 4.41 6.65 C3.78 6.01 3.14 5.38 2.48 4.72 C1 3 1 3 0 0 Z " fill="#A190D2" transform="translate(125,578)"/>
<path d="M0 0 C0.92 -0.01 1.84 -0.02 2.79 -0.02 C9.12 -0.01 13.13 0.21 17.87 4.76 C18.82 5.81 19.76 6.87 20.69 7.94 C21.75 9.12 22.81 10.3 23.87 11.48 C24.15 11.79 24.15 11.79 25.54 13.35 C28.4 16.53 31.33 19.64 34.25 22.75 C39.09 27.93 43.91 33.12 48.71 38.34 C52.54 42.49 56.39 46.62 60.25 50.75 C65.09 55.93 69.91 61.12 74.71 66.33 C78.56 70.51 82.43 74.66 86.31 78.81 C91.38 84.23 96.4 89.68 101.41 95.16 C105.24 99.34 109.12 103.47 112.99 107.61 C116.76 111.65 120.51 115.69 124.25 119.75 C128.56 124.43 132.9 129.1 137.25 133.75 C139 135.63 140.75 137.5 142.51 139.38 C143.68 140.64 144.85 141.89 146.02 143.15 C147.7 144.95 149.38 146.76 151.06 148.56 C151.57 149.11 152.08 149.65 152.61 150.21 C156.14 154.02 156.14 154.02 157.25 156.25 C153.66 155.65 150.68 154.68 147.39 153.13 C146.92 152.91 146.92 152.91 144.55 151.81 C143.55 151.34 142.54 150.86 141.5 150.38 C139.31 149.36 137.11 148.34 134.92 147.32 C133.8 146.81 132.68 146.29 131.53 145.76 C126.65 143.51 121.73 141.34 116.81 139.19 C115.82 138.75 114.83 138.32 113.81 137.87 C111.59 136.9 109.38 135.93 107.16 134.96 C102.56 132.95 97.96 130.93 93.36 128.91 C75.34 120.99 57.31 113.07 39.25 105.25 C36.92 104.24 34.59 103.23 32.26 102.22 C27.18 100.02 22.11 97.82 17.03 95.62 C11.82 93.36 6.61 91.11 1.41 88.85 C-0.53 88.01 -2.47 87.17 -4.4 86.33 C-5.67 85.78 -6.94 85.23 -8.21 84.68 C-14.42 81.98 -20.62 79.3 -26.84 76.64 C-27.31 76.45 -27.31 76.45 -29.67 75.44 C-31.34 74.73 -33 74.02 -34.67 73.32 C-39.1 71.43 -43.49 69.45 -47.86 67.41 C-52.69 65.16 -57.56 63.04 -62.48 61 C-63.14 60.72 -63.8 60.45 -64.47 60.17 C-67.16 59.06 -69.85 57.95 -72.54 56.85 C-79.53 53.98 -86.42 51.15 -92.92 47.25 C-95.76 45.7 -98.61 44.98 -101.75 44.25 C-34.93 -0.3 -34.93 -0.3 0 0 Z " fill="#CFC2E6" transform="translate(763.75,388.75)"/>
<path d="M0 0 C3 1 3 1 4.71 4.17 C5.35 5.6 5.97 7.03 6.59 8.46 C6.76 8.85 6.76 8.85 7.62 10.79 C8.74 13.31 9.84 15.84 10.94 18.38 C11.71 20.13 12.48 21.88 13.26 23.64 C14.8 27.15 16.35 30.65 17.88 34.17 C20.58 40.33 23.32 46.48 26.06 52.62 C28.65 58.45 31.24 64.28 33.82 70.11 C40.98 86.27 48.17 102.42 55.5 118.5 C60.63 129.76 65.74 141.03 70.79 152.33 C71.51 153.93 72.23 155.53 72.95 157.13 C73.95 159.35 74.94 161.57 75.93 163.8 C76.23 164.45 76.52 165.11 76.83 165.79 C78.33 169.17 79.45 172.34 80 176 C76.26 175.38 73.99 173.71 71 171.44 C65.14 167.07 59.1 163.02 53 159 C50.56 157.38 48.12 155.75 45.69 154.12 C44.4 153.27 43.11 152.41 41.82 151.55 C39.39 149.93 36.95 148.3 34.52 146.67 C17.03 134.95 -0.61 123.48 -18.56 112.49 C-20.87 111.08 -23.17 109.66 -25.47 108.24 C-42.78 97.55 -60.42 87.41 -78.15 77.43 C-84.8 73.68 -91.43 69.89 -98 66 C-96.67 62 -94.13 60.9 -90.69 58.81 C-89.52 58.09 -88.36 57.37 -87.2 56.64 C-86.55 56.24 -85.91 55.84 -85.24 55.42 C-81.51 53.05 -77.84 50.57 -74.17 48.11 C-69.03 44.69 -63.86 41.31 -58.69 37.94 C-57.56 37.2 -56.42 36.46 -55.29 35.72 C-52.42 33.84 -49.54 31.97 -46.67 30.09 C-45.06 29.04 -43.45 27.99 -41.84 26.94 C-32.03 20.53 -22.21 14.13 -12.38 7.75 C-11.69 7.31 -11.01 6.87 -10.31 6.41 C-9.09 5.62 -7.86 4.83 -6.62 4.04 C-5.15 3.09 -3.69 2.12 -2.23 1.14 C-1.49 0.76 -0.76 0.39 0 0 Z " fill="#8C7ACB" transform="translate(661,434)"/>
<path d="M0 0 C0.66 0.33 1.32 0.66 2 1 C1.41 5.83 -0.07 9.91 -2.07 14.3 C-2.23 14.65 -2.23 14.65 -3.02 16.42 C-4.05 18.72 -5.09 21.02 -6.12 23.31 C-6.85 24.93 -7.58 26.54 -8.3 28.16 C-10.52 33.11 -12.76 38.06 -15 43 C-15.34 43.75 -15.68 44.49 -16.03 45.26 C-18.86 51.51 -21.69 57.76 -24.54 64 C-27.6 70.71 -30.65 77.42 -33.65 84.16 C-33.95 84.82 -34.24 85.48 -34.55 86.16 C-35.93 89.27 -37.32 92.38 -38.7 95.49 C-41.64 102.08 -44.7 108.58 -48 115 C-48.66 115 -49.32 115 -50 115 C-51.52 113.3 -51.52 113.3 -53.38 110.88 C-57.45 105.63 -61.74 100.62 -66.14 95.65 C-70 91.22 -70 91.22 -70 89 C-70.66 89 -71.32 89 -72 89 C-73.35 87.51 -74.63 85.96 -75.88 84.38 C-79.45 79.91 -83.08 75.52 -86.81 71.19 C-87.32 70.6 -87.82 70.02 -88.34 69.41 C-89.89 67.61 -91.45 65.8 -93 64 C-99.31 56.68 -105.58 49.33 -111.67 41.82 C-114.32 38.61 -117.03 35.46 -119.75 32.31 C-124.3 27.03 -128.77 21.7 -133.19 16.31 C-133.75 15.63 -134.32 14.95 -134.9 14.24 C-135.42 13.6 -135.94 12.96 -136.48 12.3 C-136.94 11.74 -137.41 11.17 -137.88 10.59 C-139 9 -139 9 -140 6 C-100.11 -39.89 -47.35 -23.86 0 0 Z " fill="#D2C5E8" transform="translate(375,398)"/>
<path d="M0 0 C4.93 4.05 9.38 8.36 13.69 13.06 C14.29 13.72 14.9 14.37 15.52 15.05 C17.35 17.03 19.18 19.01 21 21 C22.03 22.11 23.05 23.23 24.08 24.34 C25.54 25.92 27 27.5 28.46 29.08 C32.29 33.24 36.14 37.37 40 41.5 C44.84 46.68 49.66 51.87 54.46 57.09 C58.29 61.24 62.14 65.37 66 69.5 C70.84 74.68 75.66 79.87 80.46 85.08 C84.31 89.26 88.18 93.41 92.06 97.56 C97.13 102.98 102.15 108.43 107.16 113.91 C110.99 118.09 114.87 122.22 118.74 126.36 C122.51 130.4 126.26 134.44 130 138.5 C134.31 143.18 138.65 147.85 143 152.5 C147.84 157.68 152.66 162.87 157.46 168.08 C161.31 172.26 165.18 176.41 169.06 180.56 C173.23 185.02 177.38 189.49 181.5 194 C185.81 198.71 190.15 203.39 194.5 208.06 C195.1 208.71 195.7 209.35 196.32 210.01 C196.88 210.62 197.45 211.22 198.03 211.85 C198.53 212.38 199.03 212.92 199.55 213.47 C200.56 214.54 201.61 215.57 202.69 216.57 C204 218 204 218 204 220 C200.38 218.68 197.43 217.05 194.25 214.88 C179.46 205.33 161 196.12 143 199 C128.8 202.13 116.24 208.59 103.84 215.99 C102 217 102 217 99 218 C95.04 209.59 91.15 201.15 87.31 192.69 C83.68 184.67 80.01 176.67 76.31 168.69 C71.11 157.44 65.98 146.17 60.86 134.89 C57.54 127.59 54.22 120.29 50.88 113 C49.5 110 48.12 107 46.75 104 C46.41 103.27 46.08 102.53 45.73 101.77 C41.4 92.32 37.15 82.84 33 73.31 C29.83 66.04 26.54 58.88 22.92 51.82 C16.84 39.9 11.64 27.54 6.33 15.27 C4.83 11.83 3.27 8.46 1.56 5.12 C0 2 0 2 0 0 Z " fill="#E7DFF2" transform="translate(514,107)"/>
<path d="M0 0 C3.72 1.86 5.44 3.26 8.25 6.19 C10.97 8.96 13.67 11.66 16.62 14.19 C20.6 17.6 24.43 21.17 28.25 24.75 C36.45 32.43 44.71 40.05 53.06 47.56 C53.81 48.26 54.56 48.95 55.33 49.67 C58 52 58 52 60.85 53.94 C65.58 57.42 69 60.24 69.96 66.14 C70.41 71.21 70.24 76.27 70.07 81.35 C70.05 83.22 70.04 85.09 70.03 86.96 C69.99 91.85 69.88 96.74 69.76 101.63 C69.64 106.63 69.59 111.63 69.54 116.63 C69.42 126.42 69.23 136.21 69 146 C70.32 146.33 71.64 146.66 73 147 C65.64 147.58 58.28 148.15 50.92 148.71 C48.42 148.9 45.93 149.09 43.43 149.29 C39.81 149.58 36.19 149.85 32.57 150.12 C31.48 150.21 30.39 150.3 29.27 150.39 C19.77 151.09 10.62 151 1 151 C0.83 126.09 0.83 126.09 0 0 Z " fill="#E5E1F4" transform="translate(511,502)"/>
<path d="M0 0 C1.31 1.44 1.31 1.44 2.45 3.29 C2.88 3.98 3.31 4.66 3.75 5.37 C4.21 6.11 4.66 6.86 5.12 7.62 C6.11 9.2 7.1 10.77 8.09 12.34 C8.58 13.13 9.07 13.92 9.58 14.74 C11.57 17.91 13.65 21.02 15.75 24.12 C21.91 33.31 27.92 42.59 33.95 51.85 C37.46 57.24 40.98 62.62 44.5 68 C55 84.06 65.49 100.12 75.93 116.21 C79.06 121.03 82.2 125.84 85.34 130.64 C85.72 131.21 86.09 131.79 86.48 132.38 C88.32 135.19 90.16 138 92 140.81 C95.8 146.61 99.56 152.44 103.28 158.3 C106.23 162.93 109.24 167.53 112.25 172.12 C117.68 180.44 123.1 188.75 128.48 197.1 C130.2 199.78 131.95 202.44 133.71 205.09 C134.14 205.74 134.57 206.39 135.01 207.05 C135.82 208.28 136.63 209.5 137.45 210.71 C138.36 212.1 139.19 213.55 140 215 C139.67 215.66 139.34 216.32 139 217 C128.56 206.58 118.12 196.16 107.68 185.73 C102.83 180.89 97.98 176.05 93.14 171.21 C88.45 166.54 83.77 161.86 79.09 157.19 C77.31 155.41 75.53 153.63 73.74 151.85 C71.24 149.35 68.73 146.85 66.23 144.34 C65.5 143.62 64.77 142.89 64.01 142.14 C60.75 138.87 57.59 135.58 54.58 132.08 C50.45 127.29 45.99 122.86 41.5 118.41 C40.08 116.99 38.66 115.57 37.24 114.15 C35.73 112.64 34.21 111.13 32.7 109.62 C29.52 106.46 26.35 103.3 23.19 100.13 C16.46 93.42 9.73 86.71 3 80 C-4.27 72.75 -11.54 65.51 -18.8 58.25 C-21.94 55.12 -25.09 51.98 -28.23 48.85 C-29.72 47.36 -31.21 45.88 -32.7 44.4 C-34.5 42.59 -36.31 40.8 -38.11 39 C-42.44 34.68 -46.61 30.29 -50.59 25.64 C-52.29 23.67 -54.08 21.82 -55.94 20 C-56.23 19.71 -56.23 19.71 -57.71 18.25 C-58.14 17.84 -58.56 17.42 -59 17 C-56.31 14.31 -53.83 13.88 -50.18 12.79 C-49.84 12.69 -49.84 12.69 -48.11 12.17 C-45.89 11.5 -43.66 10.84 -41.44 10.19 C-39.92 9.73 -38.41 9.28 -36.89 8.83 C-32.6 7.54 -28.3 6.27 -24 5 C-23.48 4.84 -23.48 4.84 -20.83 4.06 C-17.17 2.98 -13.51 1.9 -9.85 0.84 C-3.01 -1.18 -3.01 -1.18 0 0 Z " fill="#7567BE" transform="translate(369,749)"/>
<path d="M0 0 C4.18 1.29 7.89 2.87 11.73 4.95 C12.28 5.25 12.28 5.25 15.06 6.75 C16.25 7.39 17.44 8.04 18.62 8.69 C19.86 9.35 21.09 10.02 22.32 10.69 C24.9 12.08 27.48 13.47 30.05 14.87 C33.97 16.99 37.9 19.09 41.82 21.19 C42.46 21.53 43.09 21.86 43.74 22.21 C46.19 23.52 48.65 24.83 51.1 26.14 C57.11 29.35 63.11 32.57 69 36 C67.68 39.06 66.47 40.69 63.72 42.56 C63.05 43.02 62.38 43.48 61.7 43.96 C60.97 44.45 60.25 44.93 59.5 45.44 C57.95 46.51 56.4 47.58 54.84 48.66 C54.04 49.21 53.24 49.76 52.41 50.33 C48.58 52.99 44.78 55.71 41 58.44 C40.25 58.98 39.51 59.51 38.74 60.07 C32.12 64.87 25.62 69.83 19.14 74.82 C15.15 77.9 11.11 80.92 7.06 83.94 C0.46 88.87 -6.06 93.91 -12.56 98.99 C-17.72 103.02 -22.92 106.99 -28.17 110.89 C-30.24 112.43 -32.29 113.98 -34.33 115.55 C-34.88 115.97 -35.43 116.39 -36 116.82 C-37.54 117.99 -39.07 119.17 -40.6 120.35 C-43 122 -43 122 -45 122 C-46.51 120.03 -46.51 120.03 -48.12 117.5 C-48.66 116.66 -49.2 115.83 -49.76 114.97 C-50.17 114.32 -50.58 113.67 -51 113 C-50.56 112.16 -50.12 111.32 -49.67 110.45 C-43.9 99.2 -38.81 87.68 -33.71 76.12 C-30.24 68.26 -26.7 60.43 -23.17 52.6 C-17.4 39.81 -11.65 27.01 -5.94 14.19 C-5.69 13.63 -5.69 13.63 -4.44 10.83 C-3.99 9.83 -3.55 8.83 -3.09 7.79 C-2.71 6.93 -2.32 6.07 -1.93 5.18 C-1 3 -1 3 0 0 Z " fill="#BFADE1" transform="translate(377,400)"/>
<path d="M0 0 C0.66 0 1.32 0 2 0 C4.58 5.69 7.16 11.38 9.73 17.07 C10.61 18.99 11.48 20.92 12.35 22.85 C16.51 32.02 20.67 41.2 24.68 50.44 C27.42 56.74 30.3 62.98 33.22 69.2 C36.04 75.2 38.78 81.23 41.51 87.27 C42.14 88.65 42.77 90.04 43.4 91.43 C44.33 93.47 45.26 95.51 46.18 97.55 C46.73 98.74 47.27 99.94 47.83 101.17 C49 104 49 104 49 106 C42.98 104.34 37.8 101.31 32.38 98.31 C30.22 97.13 28.07 95.95 25.91 94.77 C24.78 94.16 23.65 93.54 22.49 92.9 C18.98 90.99 15.46 89.1 11.93 87.23 C11.35 86.91 10.76 86.6 10.16 86.28 C9.57 85.97 8.98 85.66 8.38 85.33 C-3.59 78.97 -15.45 72.43 -27.19 65.63 C-29.81 64.11 -32.45 62.59 -35.08 61.08 C-37.45 59.73 -39.82 58.36 -42.19 57 C-43.89 56.03 -45.6 55.05 -47.3 54.07 C-48.34 53.47 -49.39 52.87 -50.46 52.25 C-51.44 51.69 -52.42 51.13 -53.43 50.55 C-55.53 49.28 -57.48 47.96 -59.44 46.5 C-62 45 -62 45 -64.39 44.96 C-68.11 46.44 -71.34 48.46 -74.69 50.62 C-75.4 51.08 -76.1 51.53 -76.83 51.99 C-81.55 55 -86.17 58.13 -90.69 61.43 C-93.68 63.46 -96.86 65.21 -100 67 C-100 51.49 -100 35.98 -100 20 C-93.38 24.21 -86.77 28.42 -80.19 32.69 C-79.83 32.92 -79.83 32.92 -78.03 34.08 C-77.34 34.53 -76.64 34.98 -75.92 35.45 C-75.58 35.66 -75.58 35.66 -73.89 36.75 C-72.15 37.9 -70.47 39.14 -68.8 40.39 C-66 42 -66 42 -63.59 41.76 C-60.89 40.97 -59.07 39.98 -56.75 38.4 C-55.95 37.85 -55.14 37.31 -54.31 36.75 C-53.45 36.15 -52.59 35.56 -51.7 34.95 C-50.8 34.33 -49.89 33.71 -48.95 33.08 C-46.05 31.1 -43.15 29.11 -40.25 27.12 C-36.47 24.54 -32.68 21.96 -28.89 19.38 C-27.97 18.75 -27.05 18.13 -26.1 17.48 C-19.46 12.96 -12.77 8.55 -6 4.23 C-1.09 1.09 -1.09 1.09 0 0 Z " fill="#C9B8E4" transform="translate(612,325)"/>
<path d="M0 0 C7.08 1.24 13.39 3.65 20.02 6.38 C23.75 7.91 27.52 9.31 31.31 10.69 C55.24 19.58 78.19 30.59 101 42 C101 66.09 101 90.18 101 115 C83.59 113.84 83.59 113.84 75 112 C78 110 78 110 80 110 C76.36 104.27 72.4 98.85 68.23 93.5 C64.45 88.62 60.78 83.66 57.12 78.69 C51.28 70.73 45.39 62.82 39.45 54.93 C37.03 51.71 34.61 48.48 32.19 45.25 C28.89 40.86 25.6 36.46 22.3 32.07 C19.13 27.86 15.96 23.63 12.8 19.41 C11.62 17.83 10.44 16.26 9.26 14.68 C7.69 12.58 6.13 10.48 4.56 8.38 C4.1 7.75 3.63 7.13 3.15 6.49 C0 2.23 0 2.23 0 0 Z " fill="#7C6BC4" transform="translate(343,533)"/>
<path d="M0 0 C0 26.07 0 52.14 0 79 C-4.36 77.55 -7.71 76.23 -11.66 74.09 C-12.2 73.79 -12.2 73.79 -14.96 72.3 C-16.14 71.66 -17.32 71.02 -18.5 70.38 C-19.72 69.71 -20.95 69.05 -22.17 68.39 C-24.09 67.35 -26.02 66.31 -27.94 65.27 C-34.85 61.53 -41.79 57.83 -48.73 54.14 C-51.36 52.74 -54 51.33 -56.63 49.93 C-59.09 48.62 -61.54 47.31 -64 46 C-62.85 42.55 -62.14 42.12 -59.23 40.14 C-58.83 39.86 -58.83 39.86 -56.82 38.47 C-55.95 37.88 -55.08 37.29 -54.19 36.69 C-52.36 35.43 -50.53 34.17 -48.7 32.91 C-47.76 32.26 -46.81 31.62 -45.84 30.95 C-42.23 28.47 -38.64 25.94 -35.05 23.42 C-27.97 18.44 -20.86 13.52 -13.63 8.75 C-9.99 6.33 -6.42 3.79 -2.86 1.25 C-1 0 -1 0 0 0 Z " fill="#C2B6E2" transform="translate(512,392)"/>
<path d="M0 0 C9.97 4.89 19.79 9.98 29.56 15.25 C30.68 15.85 31.8 16.45 32.95 17.07 C38.34 19.99 43.7 22.93 49 26 C47.89 29.32 47.42 29.67 44.65 31.52 C43.96 31.99 43.27 32.45 42.57 32.93 C41.84 33.41 41.12 33.88 40.38 34.38 C38.97 35.32 37.56 36.27 36.15 37.21 C35.46 37.67 34.77 38.13 34.05 38.6 C32.03 39.98 30.07 41.41 28.1 42.85 C25 45 25 45 23 45 C23.33 45.76 23.66 46.53 24 47.31 C25 50 25 50 25 53 C19.97 48.72 15 44.39 10.12 39.94 C9.45 39.34 8.77 38.74 8.08 38.12 C3.21 33.66 3.21 33.66 2.05 30.07 C2.04 29.38 2.02 28.7 2 28 C1.34 28 0.68 28 0 28 C0 18.76 0 9.52 0 0 Z " fill="#8874C9" transform="translate(512,472)"/>
<path d="M0 0 C2.47 1.15 4.05 2.05 6 4 C6.22 6.48 6.32 8.86 6.33 11.34 C6.35 12.1 6.36 12.85 6.37 13.63 C6.41 16.14 6.43 18.65 6.45 21.15 C6.47 22.89 6.49 24.63 6.52 26.37 C6.56 30.02 6.6 33.66 6.63 37.31 C6.68 41.99 6.73 46.67 6.79 51.35 C6.84 54.94 6.88 58.53 6.92 62.12 C6.94 63.85 6.96 65.57 6.98 67.3 C7.01 69.71 7.03 72.12 7.05 74.53 C7.06 75.25 7.07 75.96 7.08 76.7 C7.1 79.76 6.98 82.07 6 85 C12.62 85.12 12.62 85.12 16 84 C17.39 83.8 18.79 83.64 20.19 83.5 C23.12 83.2 26.02 82.85 28.94 82.44 C33.62 81.83 38.29 81.91 43 82 C43 82.33 43 82.66 43 83 C39.13 83.66 35.25 84.3 31.38 84.94 C30.84 85.03 30.84 85.03 28.12 85.49 C22.27 86.45 16.49 87.17 10.57 87.56 C9.34 87.64 8.1 87.73 6.82 87.82 C5.89 87.88 4.96 87.94 4 88 C3.99 86.96 3.99 85.91 3.98 84.84 C3.93 75.01 3.85 65.18 3.76 55.35 C3.72 50.3 3.68 45.24 3.65 40.19 C3.63 35.31 3.59 30.44 3.54 25.56 C3.52 23.7 3.51 21.84 3.5 19.98 C3.49 17.37 3.46 14.77 3.43 12.17 C3.43 11.39 3.44 10.62 3.44 9.83 C3.36 5.62 3.02 3.05 0 0 Z " fill="#8171B6" transform="translate(576,560)"/>
<path d="M0 0 C0.98 0.11 1.96 0.21 2.97 0.32 C3.46 0.37 3.46 0.37 5.94 0.62 C8.47 1.01 8.47 1.01 10.47 2.01 C10.47 2.67 10.47 3.33 10.47 4.01 C14.1 4.01 17.73 4.01 21.47 4.01 C21.47 4.67 21.47 5.33 21.47 6.01 C22.46 5.68 23.45 5.35 24.47 5.01 C25.46 5.34 26.45 5.67 27.47 6.01 C27.47 6.67 27.47 7.33 27.47 8.01 C28.2 8.04 28.93 8.06 29.68 8.09 C36.63 8.47 43.24 9.42 50.03 10.89 C50.8 11.05 51.58 11.21 52.37 11.38 C56.39 12.28 59.37 13.13 62.47 16.01 C54.93 15.32 47.63 13.94 40.22 12.39 C39.6 12.26 39.6 12.26 36.44 11.6 C22.71 8.71 9.09 5.4 -4.53 2.01 C-2.53 0.01 -2.53 0.01 0 0 Z " fill="#7162A5" transform="translate(352.53125,627.98828125)"/>
<path d="M0 0 C-1.58 3.91 -4.27 6.52 -7.23 9.42 C-7.73 9.93 -8.24 10.43 -8.76 10.95 C-10.38 12.56 -12 14.15 -13.62 15.75 C-14.72 16.84 -15.82 17.93 -16.92 19.02 C-19.61 21.69 -22.3 24.34 -25 27 C-25.33 25.68 -25.66 24.36 -26 23 C-24.68 22.34 -23.36 21.68 -22 21 C-22 20.34 -22 19.68 -22 19 C-21.34 19 -20.68 19 -20 19 C-20 18.34 -20 17.68 -20 17 C-19.34 17 -18.68 17 -18 17 C-17.75 16.38 -17.5 15.76 -17.25 15.12 C-15.79 12.65 -14.62 12.05 -12 11 C-12.66 10.01 -13.32 9.02 -14 8 C-17.12 7.81 -17.12 7.81 -20 8 C-17.29 5.29 -14.07 4.26 -10.56 2.88 C-9.88 2.6 -9.2 2.32 -8.5 2.04 C-5.52 0.85 -3.23 0 0 0 Z " fill="#8B79B3" transform="translate(903,578)"/>
<path d="M0 0 C-11.58 4.05 -23.22 7.73 -35.06 10.94 C-36.19 11.24 -37.31 11.55 -38.47 11.87 C-39.52 12.15 -40.57 12.43 -41.66 12.71 C-42.13 12.84 -42.13 12.84 -44.49 13.47 C-47 14 -47 14 -51 14 C-51 13.34 -51 12.68 -51 12 C-47.9 10.55 -44.91 9.74 -41.56 9.12 C-34.11 7.71 -26.53 5.84 -19.49 2.98 C-16.52 1.81 -13.55 1.05 -10.44 0.31 C-9.88 0.18 -9.88 0.18 -7.06 -0.51 C-4.13 -0.98 -2.76 -0.81 0 0 Z " fill="#7264A8" transform="translate(742,611)"/>
<path d="M0 0 C6.12 0.45 12.24 2.98 18 5 C24.65 7.3 31.34 9.19 38.16 10.94 C39.09 11.29 40.03 11.64 41 12 C41.17 12.5 41.17 12.5 42 15 C32.26 12.73 22.77 9.83 13.25 6.81 C11.76 6.34 10.28 5.88 8.79 5.41 C5.19 4.28 1.6 3.14 -2 2 C-1.34 1.34 -0.68 0.68 0 0 Z " fill="#6C5CA0" transform="translate(258,601)"/>
<path d="M0 0 C0 0.99 0 1.98 0 3 C-0.92 3.13 -1.83 3.27 -2.77 3.4 C-3.96 3.58 -5.15 3.76 -6.38 3.94 C-7.56 4.11 -8.74 4.29 -9.96 4.46 C-13 5 -13 5 -15 6 C-18.13 6.44 -21.27 6.82 -24.41 7.16 C-28.04 7.6 -30.8 8.28 -34 10 C-36.75 9.62 -36.75 9.62 -39 9 C-39.33 8.01 -39.66 7.02 -40 6 C-39.6 5.94 -39.6 5.94 -37.57 5.66 C-33.9 5.16 -30.23 4.64 -26.56 4.12 C-25.3 3.95 -24.04 3.78 -22.74 3.6 C-17.38 2.84 -12.06 2.08 -6.78 0.87 C-3 0 -3 0 0 0 Z " fill="#5D4C96" transform="translate(558,697)"/>
<path d="M0 0 C0.33 0.05 0.33 0.05 2 0.27 C4.11 0.56 6.22 0.86 8.33 1.16 C9.76 1.36 11.2 1.56 12.63 1.75 C16.13 2.23 19.64 2.73 23.14 3.22 C20 4.84 16.99 5.96 13.58 6.91 C12.63 7.18 11.68 7.45 10.7 7.73 C8.14 8.22 8.14 8.22 5.14 7.22 C5.14 6.23 5.14 5.24 5.14 4.22 C-0.08 2.76 -4.44 2 -9.86 2.22 C-9.86 1.56 -9.86 0.9 -9.86 0.22 C-6.16 -1.01 -3.86 -0.54 0 0 Z " fill="#847AB8" transform="translate(489.85546875,700.77734375)"/>
<path d="M0 0 C0.33 0.66 0.66 1.32 1 2 C-1.09 6.38 -4.3 9.5 -7.75 12.81 C-11.29 16.27 -14.73 19.73 -17.94 23.5 C-20.39 26.38 -22.93 28.76 -26 31 C-26.66 30.67 -27.32 30.34 -28 30 C-27.58 29.59 -27.15 29.18 -26.71 28.75 C-23.67 25.76 -20.72 22.74 -17.94 19.5 C-12.17 12.81 -6.05 6.44 0 0 Z " fill="#B8ABD2" transform="translate(204,437)"/>
<path d="M0 0 C4.88 4.62 4.88 4.62 6 8 C6.99 7.67 7.98 7.34 9 7 C9 7.66 9 8.32 9 9 C7.67 9.67 7.67 9.67 1 13 C0.29 13.39 -0.41 13.79 -1.14 14.2 C-1.45 14.33 -1.45 14.33 -3 15 C-3.66 14.67 -4.32 14.34 -5 14 C-4.35 8.93 -2.15 4.58 0 0 Z " fill="#A38CD3" transform="translate(326,514)"/>
<path d="M0 0 C0.99 0 1.98 0 3 0 C1.6 3.25 0.03 5.07 -2.69 7.31 C-5.48 9.66 -8.09 12.06 -10.62 14.69 C-13.52 17.65 -16.47 19.85 -20 22 C-19.14 17.52 -18.6 15.49 -15 12.56 C-12 11 -12 11 -10 11 C-9.67 10.01 -9.34 9.02 -9 8 C-4.54 4 -4.54 4 -2 4 C-1.34 2.68 -0.68 1.36 0 0 Z " fill="#9383BF" transform="translate(464,543)"/>
<path d="M0 0 C3.97 0.66 7.46 1.87 11.19 3.38 C15.2 4.96 19.16 6.4 23.31 7.56 C27.24 8.68 30.71 10.2 34.31 12.13 C36 13 36 13 39 14 C39 14.66 39 15.32 39 16 C30.42 13.64 22.17 10.5 13.88 7.31 C12.52 6.8 11.17 6.28 9.82 5.76 C6.55 4.51 3.27 3.26 0 2 C0 1.34 0 0.68 0 0 Z " fill="#9F8FBC" transform="translate(117,551)"/>
<path d="M0 0 C0.66 0.33 1.32 0.66 2 1 C-9.22 12.22 -20.44 23.44 -32 35 C-32.16 34.5 -32.16 34.5 -33 32 C-32.45 31.54 -31.89 31.08 -31.32 30.61 C-30.6 30 -29.87 29.38 -29.12 28.75 C-28.41 28.15 -27.69 27.54 -26.95 26.92 C-25.03 25.03 -24.04 23.46 -23 21 C-22.01 21 -21.02 21 -20 21 C-20 20.34 -20 19.68 -20 19 C-18.64 17.67 -18.64 17.67 -16.81 16.19 C-13.7 13.6 -10.83 10.9 -8 8 C-6.56 6.56 -5.13 5.12 -3.69 3.69 C-2.99 2.99 -2.29 2.29 -1.57 1.57 C-1.05 1.05 -0.54 0.54 0 0 Z " fill="#7E6BAA" transform="translate(757,724)"/>
<path d="M0 0 C0.33 0.5 0.33 0.5 2 3 C1.67 3.99 1.34 4.98 1 6 C7.62 6.12 7.62 6.12 11 5 C12.39 4.8 13.79 4.64 15.19 4.5 C18.12 4.2 21.02 3.85 23.94 3.44 C28.62 2.83 33.29 2.91 38 3 C38 3.33 38 3.66 38 4 C10.84 8.57 10.84 8.57 0 9 C0 6.03 0 3.06 0 0 Z " fill="#6F61A3" transform="translate(581,639)"/>
<path d="M0 0 C8.85 3.22 17.62 6.61 26.31 10.25 C27.13 10.59 27.95 10.93 28.79 11.28 C29.56 11.61 30.32 11.93 31.11 12.27 C31.79 12.55 32.47 12.84 33.17 13.13 C35 14 35 14 38 16 C34.24 17.25 33.21 16.55 29.59 15.09 C28.52 14.65 27.44 14.22 26.34 13.78 C25.22 13.31 24.09 12.85 22.94 12.38 C21.84 11.94 20.75 11.5 19.62 11.04 C12.92 8.32 6.41 5.35 0 2 C0 1.34 0 0.68 0 0 Z " fill="#A194BF" transform="translate(132,581)"/>
<path d="M0 0 C-3.69 3.69 -9.2 4.86 -14.19 6.06 C-18 7 -18 7 -20.38 8.06 C-24.46 9.52 -28.69 9.68 -33 10 C-28.13 6.75 -22.57 5.23 -17.06 3.31 C-15.87 2.88 -14.68 2.46 -13.45 2.01 C-12.3 1.61 -11.15 1.21 -9.97 0.8 C-8.92 0.43 -7.87 0.06 -6.79 -0.32 C-4 -1 -2.65 -1 0 0 Z " fill="#594993" transform="translate(720,650)"/>
<path d="M0 0 C0 0.33 0 0.66 0 1 C-4.46 2 -8.93 3 -13.4 3.99 C-14.92 4.33 -16.43 4.67 -17.95 5.01 C-20.14 5.5 -22.32 5.99 -24.51 6.47 C-25.19 6.62 -25.86 6.77 -26.55 6.93 C-30.1 7.71 -33.37 8.17 -37 8 C-31.11 4.07 -24.33 2.89 -17.37 2.32 C-13.62 1.81 -10.08 0.66 -6.48 -0.48 C-3.89 -1.02 -2.47 -0.86 0 0 Z " fill="#7262A6" transform="translate(665,632)"/>
<path d="M0 0 C1.17 0.95 2.34 1.91 3.5 2.88 C3.82 3.14 3.82 3.14 5.47 4.49 C5.97 4.99 6.48 5.49 7 6 C7 6.66 7 7.32 7 8 C7.78 8.27 8.57 8.54 9.38 8.81 C12 10 12 10 14 13 C14.99 13.33 15.98 13.66 17 14 C17.33 14.5 17.33 14.5 19 17 C19.66 17.33 20.32 17.66 21 18 C21 18.66 21 19.32 21 20 C21.66 20 22.32 20 23 20 C23.33 20.99 23.66 21.98 24 23 C21 23 21 23 19.24 21.5 C18.6 20.82 17.97 20.14 17.31 19.44 C14.6 16.61 11.87 13.96 8.88 11.44 C5.16 8.25 2.09 4.79 -1 1 C-0.67 0.67 -0.34 0.34 0 0 Z " fill="#705FAA" transform="translate(538,523)"/>
<path d="M0 0 C4.04 1.35 5.47 3.65 8 7 C8 7.66 8 8.32 8 9 C6.06 8.72 4.12 8.42 2.19 8.12 C1.11 7.96 0.03 7.8 -1.08 7.63 C-4 7 -4 7 -7 5 C-5.91 4.13 -4.8 3.28 -3.69 2.44 C-3.07 1.96 -2.46 1.49 -1.82 1 C-1.22 0.67 -0.62 0.34 0 0 Z " fill="#7D67C2" transform="translate(332,523)"/>
<path d="M0 0 C0.41 0.01 0.41 0.01 2.46 0.07 C2.87 0.08 2.87 0.08 4.94 0.12 C5.25 0.14 5.25 0.14 6.84 0.2 C6.84 0.86 6.84 1.52 6.84 2.2 C8.82 2.69 8.82 2.69 18.84 5.2 C18.84 6.19 18.84 7.18 18.84 8.2 C16.31 7.57 13.79 6.95 11.27 6.32 C10.57 6.15 9.86 5.97 9.14 5.79 C4.68 4.68 0.25 3.48 -4.16 2.2 C-2.16 0.2 -2.16 0.2 0 0 Z " fill="#7768A3" transform="translate(305.1640625,614.8046875)"/>
<path d="M0 0 C6.77 2.18 13.42 4.63 20.06 7.19 C21.02 7.56 21.98 7.92 22.97 8.3 C25.32 9.2 27.66 10.1 30 11 C29.67 11.66 29.34 12.32 29 13 C24.65 11.58 20.33 10.15 16.06 8.5 C11.45 6.74 6.74 5.37 2 4 C2 3.34 2 2.68 2 2 C1.34 2 0.68 2 0 2 C0 1.34 0 0.68 0 0 Z " fill="#A094C0" transform="translate(173,598)"/>
<path d="M0 0 C-1 2 -1 2 -3.5 3 C-7.03 4.01 -10.55 4.81 -14.14 5.54 C-16 6 -16 6 -17 7 C-19.34 6.71 -21.67 6.38 -24 6 C-19.94 3.87 -15.81 2.61 -11.44 1.31 C-10.67 1.07 -9.9 0.84 -9.11 0.59 C-3.36 -1.12 -3.36 -1.12 0 0 Z " fill="#604F9A" transform="translate(635,678)"/>
<path d="M0 0 C0.66 0.33 1.32 0.66 2 1 C-3.67 6.67 -9.33 12.33 -15 18 C-15.33 16.68 -15.66 15.36 -16 14 C-15.34 14 -14.68 14 -14 14 C-13.34 12.68 -12.68 11.36 -12 10 C-11.34 10 -10.68 10 -10 10 C-10 9.34 -10 8.68 -10 8 C-5.53 4 -5.53 4 -3 4 C-2.67 3.01 -2.34 2.02 -2 1 C-1.34 0.67 -0.68 0.34 0 0 Z " fill="#988CC0" transform="translate(510,501)"/>
<path d="M0 0 C2 0 2 0 3.62 1.38 C5 3 5 3 5 5 C5.99 5 6.98 5 8 5 C8.23 5.6 8.45 6.2 8.69 6.81 C10.34 9.57 12.24 10.41 15 12 C15.33 12.5 15.33 12.5 17 15 C17.99 15 18.98 15 20 15 C20.99 16.98 21.98 18.96 23 21 C20 21 20 21 18.02 19.28 C17.66 18.89 17.66 18.89 15.81 16.94 C12.26 13.26 8.62 9.82 4.73 6.51 C3.07 5.06 1.47 3.65 0 2 C0 1.34 0 0.68 0 0 Z " fill="#8878B8" transform="translate(515,503)"/>
<path d="M0 0 C0 0.66 0 1.32 0 2 C-1.65 2.33 -3.3 2.66 -5 3 C-5.33 3.99 -5.66 4.98 -6 6 C-7.65 6.56 -7.65 6.56 -10 7 C-13.37 8.04 -16.74 9.1 -20.1 10.16 C-23 11 -23 11 -25 11 C-25 10.34 -25 9.68 -25 9 C-21.21 7.49 -17.42 6 -13.62 4.5 C-12.54 4.07 -11.46 3.64 -10.35 3.2 C-9.32 2.79 -8.29 2.39 -7.23 1.97 C-6.27 1.59 -5.32 1.21 -4.34 0.83 C-2 0 -2 0 0 0 Z " fill="#8875AC" transform="translate(822,610)"/>
<path d="M0 0 C4.19 0.59 7.89 1.56 11.84 3.07 C12.37 3.27 12.37 3.27 15.06 4.29 C16.15 4.71 17.25 5.13 18.38 5.56 C19.49 5.99 20.61 6.41 21.76 6.85 C24.51 7.89 27.26 8.95 30 10 C30 10.33 30 10.66 30 11 C25.19 11.45 21.36 9.8 17 8 C15.29 7.31 13.58 6.62 11.88 5.94 C11.04 5.6 10.2 5.26 9.34 4.91 C7.4 4.16 5.42 3.5 3.44 2.88 C1 2 1 2 0 0 Z " fill="#A69CC2" transform="translate(233,622)"/>
<path d="M0 0 C0.57 0.19 1.14 0.39 1.72 0.59 C6.45 2.18 11.19 3.67 16 5 C16 5.66 16 6.32 16 7 C18.31 7.33 20.62 7.66 23 8 C22.67 8.66 22.34 9.32 22 10 C14.49 8.08 7.24 5.76 0 3 C0 2.01 0 1.02 0 0 Z " fill="#A395C2" transform="translate(215,586)"/>
<path d="M0 0 C-1.65 3.29 -4.9 3.83 -8.21 5.11 C-12.17 6.37 -15.86 6.73 -20 7 C-17.28 4.28 -14.07 3.21 -10.56 1.81 C-9.88 1.53 -9.2 1.24 -8.5 0.95 C-3.36 -1.12 -3.36 -1.12 0 0 Z " fill="#907EB3" transform="translate(861,596)"/>
<path d="M0 0 C7.39 0.55 15.47 3.6 22 7 C18.29 7.97 15.98 7.99 12.36 6.79 C11.93 6.65 11.93 6.65 9.81 5.96 C9.37 5.81 9.37 5.81 7.19 5.06 C6.3 4.77 5.42 4.48 4.51 4.18 C2.34 3.46 0.17 2.74 -2 2 C-1.34 1.34 -0.68 0.68 0 0 Z " fill="#8173AB" transform="translate(258,601)"/>
<path d="M0 0 C-2.91 1.01 -5.83 2.01 -8.75 3 C-9.58 3.29 -10.4 3.57 -11.25 3.87 C-12.05 4.14 -12.85 4.41 -13.67 4.69 C-14.04 4.81 -14.04 4.81 -15.89 5.45 C-18 6 -18 6 -22 6 C-21.67 5.01 -21.34 4.02 -21 3 C-18.2 2.08 -15.55 1.37 -12.69 0.75 C-12.3 0.66 -12.3 0.66 -10.35 0.19 C-6.48 -0.69 -3.86 -1.2 0 0 Z " fill="#6D5EA5" transform="translate(742,611)"/>
<path d="M0 0 C5.66 0.5 9.78 1.62 15 4 C17.98 5.06 20.99 6.04 24 7 C24 7.66 24 8.32 24 9 C15.73 6.96 7.9 4.18 0 1 C0 0.67 0 0.34 0 0 Z " fill="#A295BD" transform="translate(173,573)"/>
<path d="M0 0 C-1.58 4.27 -4.51 6.27 -8 9 C-8.33 7.68 -8.66 6.36 -9 5 C-10.32 4.67 -11.64 4.34 -13 4 C-11.4 3.33 -9.79 2.66 -8.19 2 C-7.29 1.63 -6.4 1.26 -5.48 0.88 C-3 0 -3 0 0 0 Z " fill="#998BB4" transform="translate(903,578)"/>
<path d="M0 0 C0 0.99 0 1.98 0 3 C-0.43 3.07 -0.43 3.07 -2.63 3.4 C-3.79 3.58 -4.94 3.76 -6.12 3.94 C-7.26 4.11 -8.4 4.29 -9.57 4.46 C-12.72 4.96 -15.86 5.47 -19 6 C-18.67 5.01 -18.34 4.02 -18 3 C-15.56 2.5 -13.13 2 -10.69 1.5 C-10 1.36 -9.31 1.21 -8.6 1.07 C-5.67 0.47 -2.99 0 0 0 Z " fill="#635198" transform="translate(558,697)"/>
<path d="M0 0 C0.33 0 0.66 0 1 0 C1 6.27 1 12.54 1 19 C-1.29 18.88 -3.58 18.75 -5.94 18.62 C-7.23 18.56 -8.51 18.49 -9.84 18.41 C-10.88 18.28 -11.93 18.14 -13 18 C-13.33 17.34 -13.66 16.68 -14 16 C-9.71 16 -5.42 16 -1 16 C-0.67 10.72 -0.34 5.44 0 0 Z " fill="#7D70B1" transform="translate(442,629)"/>
<path d="M0 0 C0.43 0.64 0.87 1.28 1.31 1.94 C3 4 3 4 6 5 C6.22 5.38 6.22 5.38 7.31 7.31 C9 10 9 10 12.12 12 C15 14 15 14 15.88 16.75 C15.92 17.49 15.96 18.24 16 19 C9.59 13.73 3.81 7.91 -2 2 C-1.34 1.34 -0.68 0.68 0 0 Z " fill="#A397C2" transform="translate(149,600)"/>
<path d="M0 0 C2.11 0.42 2.11 0.42 4 1 C2.21 2.84 0.42 4.67 -1.38 6.5 C-1.88 7.02 -2.39 7.55 -2.91 8.09 C-4.24 9.43 -5.62 10.72 -7 12 C-7.66 12 -8.32 12 -9 12 C-7.12 7.25 -7.12 7.25 -6 5 C-5.01 5 -4.02 5 -3 5 C-3 4.34 -3 3.68 -3 3 C-1.75 1.31 -1.75 1.31 0 0 Z " fill="#594899" transform="translate(527,953)"/>
<path d="M0 0 C-13.14 6.72 -13.14 6.72 -20 6 C-17.33 3.33 -14.66 2.6 -11.12 1.31 C-9.89 0.85 -8.66 0.4 -7.38 -0.07 C-4.24 -0.93 -2.94 -1.22 0 0 Z " fill="#8C7BAE" transform="translate(786,626)"/>
<path d="M0 0 C-4.63 2.84 -8.67 4.69 -14 6 C-14.4 6.1 -14.4 6.1 -16.44 6.62 C-16.95 6.75 -17.47 6.87 -18 7 C-18.33 6.34 -18.66 5.68 -19 5 C-16.59 3.97 -14.17 2.95 -11.75 1.94 C-11.07 1.64 -10.39 1.35 -9.68 1.04 C-5.98 -0.48 -3.82 -1.24 0 0 Z " fill="#836FAC" transform="translate(880,589)"/>
<path d="M0 0 C3.96 0.77 7.88 1.65 11.81 2.56 C12.39 2.7 12.39 2.7 15.33 3.38 C16.21 3.58 17.09 3.79 18 4 C17.67 4.66 17.34 5.32 17 6 C10.95 5.45 5.69 4.1 0 2 C0 1.34 0 0.68 0 0 Z " fill="#6F61A2" transform="translate(241,596)"/>
<path d="M0 0 C0.99 0.33 1.98 0.66 3 1 C-1.95 5.95 -6.9 10.9 -12 16 C-12 12.52 -11.55 12.12 -9.31 9.62 C-8.77 9.02 -8.22 8.41 -7.66 7.78 C-5.5 5.46 -3.28 3.21 -1 1 C-0.67 0.67 -0.34 0.34 0 0 Z " fill="#8473AD" transform="translate(844,635)"/>
<path d="M0 0 C5.93 1.17 11.39 2.76 17 5 C17 5.33 17 5.66 17 6 C11.64 6.4 7.85 4.99 3 3 C2.01 2.67 1.02 2.34 0 2 C0 1.34 0 0.68 0 0 Z " fill="#7F74AE" transform="translate(341,661)"/>
<path d="M0 0 C5.61 1.98 11.22 3.96 17 6 C16.34 6.66 15.68 7.32 15 8 C9.58 6.64 4.92 4.63 0 2 C0 1.34 0 0.68 0 0 Z " fill="#ABA1C3" transform="translate(204,610)"/>
<path d="M0 0 C0.33 0.66 0.66 1.32 1 2 C-1.12 2.56 -3.25 3.09 -5.38 3.62 C-6.56 3.93 -7.74 4.23 -8.96 4.54 C-9.96 4.69 -10.97 4.84 -12 5 C-12.66 4.34 -13.32 3.68 -14 3 C-4.59 -0.44 -4.59 -0.44 0 0 Z " fill="#786BAC" transform="translate(720,616)"/>
<path d="M0 0 C0.99 0 1.98 0 3 0 C1.57 3.45 -0.1 5.1 -3.12 7.25 C-3.49 7.51 -3.49 7.51 -5.32 8.83 C-5.87 9.21 -6.43 9.6 -7 10 C-6.67 8.35 -6.34 6.7 -6 5 C-5.38 4.92 -4.76 4.84 -4.12 4.75 C-2 4 -2 4 -0.75 1.94 C-0.5 1.3 -0.25 0.66 0 0 Z " fill="#9A8CC0" transform="translate(464,543)"/>
<path d="M0 0 C-2.02 2.02 -3.26 2.68 -5.88 3.69 C-6.55 3.96 -7.23 4.23 -7.93 4.51 C-10.31 5.07 -11.7 4.77 -14 4 C-12.23 3.13 -10.46 2.28 -8.69 1.44 C-7.7 0.96 -6.72 0.49 -5.7 -0 C-3 -1 -3 -1 0 0 Z " fill="#836DAA" transform="translate(841,604)"/>
<path d="M0 0 C5.71 0.47 9.16 1.94 14 5 C12 6 12 6 9.43 5.29 C8.44 4.93 7.46 4.56 6.44 4.19 C5.45 3.83 4.45 3.47 3.43 3.11 C1 2 1 2 0 0 Z " fill="#9E8EBF" transform="translate(158,567)"/>
<path d="M0 0 C-1 2 -1 2 -2.89 2.63 C-6.98 3.49 -10.8 4.27 -15 4 C-12.39 2.26 -10.42 1.31 -7.5 0.31 C-7.11 0.18 -7.11 0.18 -5.16 -0.51 C-3 -1 -3 -1 0 0 Z " fill="#6F5FA1" transform="translate(702,656)"/>
<path d="M0 0 C6.72 1.3 12.72 3.3 19 6 C15.27 7.24 14.16 6.54 10.56 5.12 C5.24 3.05 5.24 3.05 2.71 2.49 C2.15 2.33 1.58 2.17 1 2 C0.67 1.34 0.34 0.68 0 0 Z " fill="#8076AC" transform="translate(295,645)"/>
<path d="M0 0 C3.5 0.75 3.5 0.75 6.5 2.75 C1.56 3.96 -1.71 3.38 -6.5 1.75 C-3.5 -0.25 -3.5 -0.25 0 0 Z " fill="#5F4DA0" transform="translate(341.5,624.25)"/>
<path d="M0 0 C3.66 0.63 6.88 1.64 10.31 3.06 C11.2 3.42 12.08 3.79 12.99 4.16 C13.65 4.44 14.32 4.71 15 5 C11.21 6.43 8.93 5.51 5.25 4.06 C4.76 3.87 4.76 3.87 2.27 2.91 C1.52 2.61 0.77 2.31 0 2 C0 1.34 0 0.68 0 0 Z " fill="#9B8BBC" transform="translate(117,551)"/>
<path d="M0 0 C-3.07 2.98 -4.46 3.96 -8.81 4.25 C-9.86 4.17 -10.92 4.09 -12 4 C-10.72 1.44 -9.76 1.3 -7.12 0.31 C-6.78 0.18 -6.78 0.18 -5.01 -0.51 C-3 -1 -3 -1 0 0 Z " fill="#826EAB" transform="translate(766,633)"/>
<path d="M0 0 C0.66 0 1.32 0 2 0 C2.66 0.99 3.32 1.98 4 3 C4.66 3.33 5.32 3.66 6 4 C6 4.66 6 5.32 6 6 C6.66 6 7.32 6 8 6 C8.33 6.99 8.66 7.98 9 9 C6 9 6 9 4.39 7.54 C4.13 7.22 4.13 7.22 2.81 5.62 C2.28 5 1.75 4.37 1.21 3.73 C0 2 0 2 0 0 Z " fill="#796BAF" transform="translate(553,537)"/>
<path d="M0 0 C-2.64 2.64 -5.06 3.08 -8.62 4.12 C-9.81 4.48 -11 4.83 -12.23 5.2 C-13.14 5.46 -14.06 5.73 -15 6 C-14 3 -14 3 -12.36 2.05 C-8.09 0.51 -4.62 -0.35 0 0 Z " fill="#E8E0F8" transform="translate(713,650)"/>
<path d="M0 0 C5.54 0.57 10.04 2.63 15 5 C11.36 6.33 9.33 5.66 5.81 4.19 C4.93 3.83 4.05 3.47 3.14 3.11 C1 2 1 2 0 0 Z " fill="#A093BF" transform="translate(233,622)"/>
<path d="M0 0 C7.43 -0.29 7.43 -0.29 11 2 C10.67 2.66 10.34 3.32 10 4 C8.52 3.72 7.04 3.42 5.56 3.12 C4.74 2.96 3.92 2.8 3.07 2.63 C2.38 2.42 1.7 2.22 1 2 C0.67 1.34 0.34 0.68 0 0 Z " fill="#7C6DA9" transform="translate(314,619)"/>
<path d="M0 0 C5.14 0.64 9.99 1.68 15 3 C12 5 12 5 9.84 4.61 C9.07 4.33 8.3 4.04 7.5 3.75 C6.73 3.48 5.95 3.2 5.16 2.92 C3 2 3 2 0 0 Z " fill="#A698C3" transform="translate(130,557)"/>
<path d="M0 0 C0 0.66 0 1.32 0 2 C-1.65 2.33 -3.3 2.66 -5 3 C-5.33 3.99 -5.66 4.98 -6 6 C-6.99 5.84 -6.99 5.84 -12 5 C-8.46 2.64 -4.36 0 0 0 Z " fill="#9180B3" transform="translate(822,610)"/>
<path d="M0 0 C0.83 0.16 0.83 0.16 5 1 C5.33 1.99 5.66 2.98 6 4 C6.99 4.33 7.98 4.66 9 5 C9 5.99 9 6.98 9 8 C4.73 6.42 2.73 3.49 0 0 Z " fill="#6855A6" transform="translate(561,546)"/>
<path d="M0 0 C0.99 0.33 1.98 0.66 3 1 C0.36 3.64 -2.28 6.28 -5 9 C-5.33 7.68 -5.66 6.36 -6 5 C-5.34 5 -4.68 5 -4 5 C-4 4.34 -4 3.68 -4 3 C-3.01 2.67 -2.02 2.34 -1 2 C-0.67 1.34 -0.34 0.68 0 0 Z " fill="#9486BC" transform="translate(474,534)"/>
<path d="M0 0 C0.4 0.01 0.4 0.01 2.44 0.06 C0.82 2.1 -0.85 4.1 -2.56 6.06 C-3.22 6.06 -3.88 6.06 -4.56 6.06 C-3.49 0.09 -3.49 0.09 0 0 Z " fill="#9789C1" transform="translate(481.5625,527.9375)"/>
<path d="M0 0 C0.33 0.99 0.66 1.98 1 3 C-1.31 5.31 -3.62 7.62 -6 10 C-6.33 9.01 -6.66 8.02 -7 7 C-4.69 4.69 -2.38 2.38 0 0 Z " fill="#B9ABD1" transform="translate(151,494)"/>
<path d="M0 0 C-0.33 0.66 -0.66 1.32 -1 2 C-3 2.48 -3 2.48 -5.44 2.75 C-5.84 2.8 -5.84 2.8 -7.87 3.05 C-10 3 -10 3 -12 1 C-3.96 -1.28 -3.96 -1.28 0 0 Z " fill="#6E5FA2" transform="translate(597,689)"/>
<path d="M0 0 C-0.33 0.66 -0.66 1.32 -1 2 C-3.07 2.41 -3.07 2.41 -5.56 2.62 C-6.39 2.7 -7.22 2.77 -8.07 2.85 C-8.39 2.88 -8.39 2.88 -10 3 C-10.33 2.34 -10.66 1.68 -11 1 C-6.88 -0.63 -4.29 -1.26 0 0 Z " fill="#695AA0" transform="translate(656,672)"/>
<path d="M0 0 C4.55 -0.18 7.88 0 12 2 C12 2.66 12 3.32 12 4 C10.02 3.5 10.02 3.5 0 1 C0 0.67 0 0.34 0 0 Z " fill="#7465A9" transform="translate(288,612)"/>
<path d="M0 0 C2.97 0 5.94 0 9 0 C8.01 0.33 7.02 0.66 6 1 C6 1.66 6 2.32 6 3 C4.02 3.33 2.04 3.66 0 4 C0 2.68 0 1.36 0 0 Z " fill="#453486" transform="translate(513,704)"/>
<path d="M0 0 C1.62 -0.08 3.25 -0.14 4.88 -0.19 C5.78 -0.22 6.68 -0.26 7.62 -0.29 C8.01 -0.24 8.01 -0.24 10 0 C10.66 0.99 11.32 1.98 12 3 C3.96 2.2 3.96 2.2 0 0 Z " fill="#7E72A8" transform="translate(360,632)"/>
<path d="M0 0 C2.97 0.99 5.94 1.98 9 3 C8.67 3.66 8.34 4.32 8 5 C7.01 4.84 7.01 4.84 2 4 C2 3.34 2 2.68 2 2 C1.34 2 0.68 2 0 2 C0 1.34 0 0.68 0 0 Z " fill="#A79AC4" transform="translate(173,598)"/>
<path d="M0 0 C0.33 0.66 0.66 1.32 1 2 C0.34 1.67 -0.32 1.34 -1 1 C-0.67 0.67 -0.34 0.34 0 0 Z M-3 2 C-2.34 2.33 -1.68 2.66 -1 3 C-6.14 8.57 -6.14 8.57 -10 9 C-7.67 6.67 -5.33 4.33 -3 2 Z " fill="#755CB7" transform="translate(288,557)"/>
<path d="M0 0 C0.99 0 1.98 0 3 0 C1.61 3.37 0.02 4.99 -3 7 C-3 5.68 -3 4.36 -3 3 C-2.34 3 -1.68 3 -1 3 C-0.67 2.01 -0.34 1.02 0 0 Z " fill="#9181B4" transform="translate(872,606)"/>
<path d="M0 0 C0.99 0 1.98 0 3 0 C3 0.66 3 1.32 3 2 C1.25 3.51 1.25 3.51 -1 5.12 C-1.74 5.66 -2.49 6.2 -3.25 6.76 C-3.83 7.17 -4.4 7.58 -5 8 C-4.67 6.68 -4.34 5.36 -4 4 C-3.34 4 -2.68 4 -2 4 C-2 3.34 -2 2.68 -2 2 C-1.34 2 -0.68 2 0 2 C0 1.34 0 0.68 0 0 Z " fill="#978BBD" transform="translate(490,519)"/>
<path d="M0 0 C0.99 0.33 1.98 0.66 3 1 C0.69 3.31 -1.62 5.62 -4 8 C-4.33 7.01 -4.66 6.02 -5 5 C-4.34 5 -3.68 5 -3 5 C-3 4.34 -3 3.68 -3 3 C-2.34 3 -1.68 3 -1 3 C-0.67 2.01 -0.34 1.02 0 0 Z " fill="#594896" transform="translate(588,893)"/>
<path d="M0 0 C-2.97 1.65 -5.66 2.44 -9 3 C-9 2.01 -9 1.02 -9 0 C-2.25 -1.12 -2.25 -1.12 0 0 Z " fill="#7D66AD" transform="translate(796,623)"/>
<path d="M0 0 C-1.39 3.37 -2.98 4.99 -6 7 C-6 5.68 -6 4.36 -6 3 C-5.34 3 -4.68 3 -4 3 C-4 2.34 -4 1.68 -4 1 C-2 0 -2 0 0 0 Z " fill="#8777AF" transform="translate(866,615)"/>
<path d="M0 0 C0.99 0.33 1.98 0.66 3 1 C1.85 1.99 1.85 1.99 -4 7 C-3.04 3.16 -2.76 2.4 0 0 Z " fill="#5A4796" transform="translate(553,928)"/>
<path d="M0 0 C0.33 0.66 0.66 1.32 1 2 C-0.49 2.16 -0.49 2.16 -8 3 C-8 2.34 -8 1.68 -8 1 C-5.07 0.02 -3.04 -0.08 0 0 Z " fill="#5A4A93" transform="translate(566,696)"/>
<path d="M0 0 C-0.33 0.66 -0.66 1.32 -1 2 C-3.97 2 -6.94 2 -10 2 C-6.17 -0.55 -4.42 -1.47 0 0 Z " fill="#68589C" transform="translate(635,678)"/>
<path d="M0 0 C0 0.66 0 1.32 0 2 C-4.15 5.11 -4.15 5.11 -7.31 4.69 C-7.87 4.46 -8.43 4.23 -9 4 C-6.43 1.43 -3.69 0 0 0 Z " fill="#9485B2" transform="translate(870,591)"/>
<path d="M0 0 C1.98 0.66 3.96 1.32 6 2 C5.67 3.32 5.34 4.64 5 6 C3.31 4.35 1.65 2.69 0 1 C0 0.67 0 0.34 0 0 Z " fill="#ACA3BE" transform="translate(125,578)"/>
<path d="M0 0 C-3.2 2.83 -5.78 3.52 -10 4 C-10 3.34 -10 2.68 -10 2 C-6.49 0.4 -3.86 -0.22 0 0 Z " fill="#B2A6CC" transform="translate(894,557)"/>
<path d="M0 0 C0.66 0.66 1.32 1.32 2 2 C1.01 2.83 1.01 2.83 -4 7 C-4 5.68 -4 4.36 -4 3 C-2 1.25 -2 1.25 0 0 Z " fill="#473882" transform="translate(517,964)"/>
<path d="M0 0 C0.99 0.33 1.98 0.66 3 1 C1.85 1.99 1.85 1.99 -4 7 C-4 6.01 -4 5.02 -4 4 C-3.34 4 -2.68 4 -2 4 C-1.34 2.68 -0.68 1.36 0 0 Z " fill="#594796" transform="translate(535,946)"/>
<path d="M0 0 C0 0.99 0 1.98 0 3 C-2.88 3.12 -2.88 3.12 -6 3 C-6.66 2.34 -7.32 1.68 -8 1 C-5.24 0.4 -2.84 0 0 0 Z " fill="#7060A1" transform="translate(558,697)"/>
<path d="M0 0 C-2 2 -2 2 -5.62 2.12 C-6.74 2.08 -7.85 2.04 -9 2 C-5.95 -1.05 -3.95 -1.23 0 0 Z " fill="#635297" transform="translate(720,650)"/>
<path d="M0 0 C0.33 0.66 0.66 1.32 1 2 C4.06 2.62 4.06 2.62 7 3 C5.19 4.06 5.19 4.06 3 5 C2.01 4.67 1.02 4.34 0 4 C0 3.34 0 2.68 0 2 C-0.99 1.67 -1.98 1.34 -3 1 C-2.01 0.67 -1.02 0.34 0 0 Z " fill="#7262AC" transform="translate(311,615)"/>
<path d="M0 0 C0 0.66 0 1.32 0 2 C-1.49 2.16 -1.49 2.16 -9 3 C-6.02 0.02 -4.21 0 0 0 Z " fill="#8772AC" transform="translate(850,600)"/>
<path d="M0 0 C1.32 1.65 2.64 3.3 4 5 C3.34 5.66 2.68 6.32 2 7 C0.62 5.71 -0.71 4.37 -2 3 C-2 2.34 -2 1.68 -2 1 C-1.34 0.67 -0.68 0.34 0 0 Z " fill="#7F70B3" transform="translate(534,518)"/>
</svg>
